<?xml version="1.0" standalone="no"?>
<!DOCTYPE svg PUBLIC "-//W3C//DTD SVG 1.1//EN" "http://www.w3.org/Graphics/SVG/1.1/DTD/svg11.dtd" >
<svg xmlns="http://www.w3.org/2000/svg">
<metadata></metadata>
<defs>
<font id="volvo_broad_cyrillicregular" horiz-adv-x="729" >
<font-face units-per-em="2048" ascent="1638" descent="-410" />
<missing-glyph horiz-adv-x="387" />
<glyph horiz-adv-x="2048" />
<glyph horiz-adv-x="2048" />
<glyph unicode="&#xd;" horiz-adv-x="387" />
<glyph unicode=" "  horiz-adv-x="387" />
<glyph unicode="&#x09;" horiz-adv-x="387" />
<glyph unicode="&#xa0;" horiz-adv-x="387" />
<glyph unicode="!" horiz-adv-x="352" d="M57 1280q-2 47 13.5 66.5t50.5 19.5h108q39 0 52.5 -18.5t13.5 -69.5l-8 -840q0 -49 -13.5 -66.5t-48.5 -17.5h-86q-37 0 -51 16.5t-16 67.5zM61 92v58q0 49 10.5 70.5t53.5 21.5h106q43 0 53.5 -21.5t10.5 -70.5v-58q0 -49 -10.5 -70.5t-53.5 -21.5h-106 q-43 0 -53.5 21.5t-10.5 70.5z" />
<glyph unicode="&#x22;" horiz-adv-x="512" d="M14 1309q-6 57 39 57h129q23 0 35 -17.5t8 -39.5l-41 -275q-4 -29 -13 -36t-32 -7h-41q-20 0 -30.5 7.5t-14.5 35.5zM287 1309q-4 23 8 40t35 17h129q45 0 39 -57l-39 -275q-4 -29 -14.5 -36t-30.5 -7h-41q-23 0 -32 7.5t-13 35.5z" />
<glyph unicode="#" horiz-adv-x="1306" d="M0 457l18 59q10 29 19.5 40t36.5 11h245l74 234h-233q-53 0 -37 51l18 59q10 29 19.5 41.5t36.5 12.5h249l119 370q8 25 22.5 31t43.5 6h61q59 0 43 -53l-112 -354h239l119 370q8 25 22.5 31t43.5 6h63q57 0 41 -53l-113 -354h232q51 0 37 -52l-19 -61q-8 -29 -18 -40 t-37 -11h-246l-76 -234h236q53 0 37 -51l-19 -59q-10 -29 -19 -41.5t-36 -12.5h-250l-117 -366q-8 -25 -23 -31t-44 -6h-62q-59 0 -43 51l113 352h-240l-116 -366q-8 -25 -23.5 -31t-44.5 -6h-61q-59 0 -43 51l112 352h-231q-55 0 -37 54zM496 567h239l76 234h-242z" />
<glyph unicode="$" horiz-adv-x="604" d="M20 1081q0 119 49.5 170.5t149.5 57.5v102q0 39 29 39h94q16 0 22.5 -6t6.5 -27v-108h98q29 0 41 -15.5t12 -52.5v-82q0 -41 -13 -56.5t-46 -15.5h-166q-47 0 -56.5 -34.5t13.5 -75.5l203 -373q37 -70 59.5 -120t34.5 -89t16 -72.5t4 -68.5q0 -113 -54 -157t-146 -44 v-108q0 -29 -5.5 -36t-21.5 -7h-98q-16 0 -21.5 7t-5.5 32v112h-131q-37 0 -49 15.5t-12 62.5v66q0 49 12 63t47 14h195q41 0 48 32t-10 61l-210 401q-61 117 -75 189.5t-14 123.5z" />
<glyph unicode="%" horiz-adv-x="1136" d="M12 1020q0 94 9.5 162.5t35 113.5t73.5 66.5t126 21.5t126 -21.5t73.5 -66.5t35 -113.5t9.5 -162.5q0 -106 -12.5 -180t-40 -120t-74.5 -66.5t-117 -20.5q-137 0 -190.5 88t-53.5 299zM197 1010q0 -76 2 -120t8 -66.5t18.5 -29t32.5 -6.5t31.5 6.5t17.5 29t7 66.5t1 120 q0 70 -1 111.5t-6 65t-16 31t-34 7.5q-20 0 -32.5 -7.5t-18.5 -31t-8 -65.5t-2 -111zM292 5q-7 9 3 38l403 1292q6 23 14.5 28t30.5 5h62q23 0 35 -6t2 -35l-412 -1300q-6 -18 -13 -24.5t-22 -6.5h-67q-29 0 -36 9zM637 360q0 94 9 163t35 114t74 66.5t126 21.5t126 -21.5 t73.5 -66.5t34.5 -114t9 -163q0 -106 -12 -180t-41 -120t-75 -66.5t-115 -20.5q-70 0 -117 20.5t-74.5 66.5t-40 120t-12.5 180zM821 350q0 -76 2 -120t8.5 -66.5t18.5 -28.5t33 -6q20 0 31.5 6t17.5 28.5t7 66.5t1 120q0 70 -1 112t-6 65.5t-16.5 30.5t-33.5 7 q-20 0 -32.5 -7t-19 -30.5t-8.5 -65.5t-2 -112z" />
<glyph unicode="&#x26;" horiz-adv-x="806" d="M35 422q0 84 7 138t22.5 89t39 52.5t56.5 25.5q-27 10 -47.5 27.5t-36 54.5t-23.5 97.5t-8 156.5q0 111 21.5 171t56.5 90t80 36t92 6h303q72 0 72 -68v-108q0 -35 -17.5 -50.5t-62.5 -15.5h-232q-80 0 -79 -69v-142q0 -41 18 -60t65 -19h91v38q0 27 13 45.5t48 18.5h117 q35 0 49 -13.5t14 -48.5v-43h39q41 0 52.5 -13t11.5 -48v-117q0 -37 -14.5 -51t-45.5 -14h-43v-207q0 -113 -10 -188.5t-44 -121.5t-100.5 -64.5t-181.5 -18.5q-106 0 -170.5 25.5t-98.5 78.5t-44 135t-10 195zM279 319q0 -39 18 -63.5t68 -24.5q53 0 70.5 22.5t17.5 70.5 v268h-115q-59 0 -59 -70v-203z" />
<glyph unicode="'" horiz-adv-x="237" d="M14 1309q-6 57 39 57h129q23 0 34 -17.5t7 -39.5l-41 -275q-4 -29 -13 -36t-32 -7h-41q-20 0 -30.5 7.5t-14.5 35.5z" />
<glyph unicode="(" horiz-adv-x="331" d="M39 664q0 111 7 207t19.5 185t29 176t34.5 179q10 41 21.5 53.5t46.5 12.5h59q33 0 41 -9.5t2 -54.5q-12 -90 -21.5 -177t-14.5 -177t-8 -187.5t-3 -207.5q0 -111 3 -207.5t8 -187.5t14.5 -178t21.5 -177q6 -45 -2 -54.5t-41 -9.5h-59q-35 0 -46.5 12.5t-21.5 53.5 q-18 92 -34.5 179t-29 176t-19.5 185.5t-7 207.5z" />
<glyph unicode=")" horiz-adv-x="331" d="M33 -86q12 90 21 177t14.5 178t8.5 187.5t3 207.5t-3 208t-8.5 187t-14.5 177t-21 177q-6 45 2 54.5t41 9.5h59q35 0 46.5 -12.5t21.5 -53.5q18 -92 34.5 -179t29 -176t19.5 -185t7 -207t-7 -207.5t-19.5 -185.5t-29 -176t-34.5 -179q-10 -41 -21.5 -53.5t-46.5 -12.5 h-59q-33 0 -41 9.5t-2 54.5z" />
<glyph unicode="*" horiz-adv-x="430" d="M1 1055.5q1 9.5 22 19.5l127 62l-127 63q-18 10 -20.5 20.5t3.5 20.5l14 25q8 12 17.5 15t28.5 -9l116 -80l-10 139q-2 39 29 39h26q16 0 23.5 -8t5.5 -33l-8 -137l114 78q16 12 26.5 10t21.5 -16l14 -23q10 -14 5 -24.5t-28 -20.5l-120 -59l122 -60q39 -18 21 -45 l-14 -22q-8 -16 -18.5 -17.5t-31.5 13.5l-112 73l8 -139q2 -23 -6 -29t-21 -6h-28q-16 0 -23.5 6.5t-5.5 28.5l10 139l-116 -78q-18 -12 -27.5 -8t-15.5 15l-15 24q-8 14 -7 23.5z" />
<glyph unicode="+" horiz-adv-x="880" d="M14 653v105q0 47 13.5 64.5t50.5 17.5h229v223q0 31 13.5 48t64.5 17h104q47 0 64.5 -13t17.5 -50v-225h232q37 0 50 -17.5t13 -64.5v-105q0 -51 -17.5 -64.5t-47.5 -13.5h-230v-235q0 -37 -17 -50.5t-65 -13.5h-104q-51 0 -64.5 17.5t-13.5 48.5v233h-227 q-31 0 -48.5 13.5t-17.5 64.5z" />
<glyph unicode="," horiz-adv-x="286" d="M23 51v99q0 49 10 70.5t53 21.5h115q43 0 53 -21.5t10 -70.5v-64q0 -16 -3 -36.5t-19 -61.5l-39 -105q-14 -41 -43 -41h-99q-35 0 -20 35l37 88q10 25 4 30t-14 5h-13q-33 0 -32 51z" />
<glyph unicode="-" horiz-adv-x="432" d="M20 672v102q0 51 12.5 67.5t53.5 16.5h260q41 0 53.5 -16.5t12.5 -67.5v-102q0 -51 -12.5 -67.5t-53.5 -16.5h-260q-41 0 -53.5 16.5t-12.5 67.5z" />
<glyph unicode="." horiz-adv-x="286" d="M23 92v58q0 49 10 70.5t53 21.5h115q43 0 53 -21.5t10 -70.5v-58q0 -49 -10 -70.5t-53 -21.5h-115q-43 0 -53 21.5t-10 70.5z" />
<glyph unicode="/" horiz-adv-x="393" d="M14 10l213 1350q6 43 39 43h92q29 0 21 -51l-213 -1350q-6 -43 -39 -43h-92q-29 0 -21 51z" />
<glyph unicode="0" horiz-adv-x="712" d="M35 682q0 215 11 351t45 213t97.5 105.5t167.5 28.5t168 -28.5t97.5 -105.5t45 -213t11.5 -351t-11.5 -351t-45 -214t-97 -106.5t-168.5 -28.5q-104 0 -167.5 28.5t-97.5 106.5t-45 214t-11 351zM274 682q0 -156 2.5 -244t11.5 -132t25.5 -54t42.5 -10q29 0 44.5 10 t24.5 54t11 132t2 244t-2 245t-11 133t-24.5 54t-44.5 10q-27 0 -43 -10t-25 -54t-11.5 -133t-2.5 -245z" />
<glyph unicode="1" horiz-adv-x="411" d="M23 1204v70q0 59 15 75.5t68 16.5h175q41 0 54 -17.5t13 -72.5v-1188q0 -53 -12 -70.5t-60 -17.5h-102q-41 0 -54.5 17.5t-13.5 70.5v993q0 27 -4 35t-20 8h-14q-29 0 -37 14.5t-8 65.5z" />
<glyph unicode="2" horiz-adv-x="585" d="M8 88v121q0 47 10.5 99t26.5 87l211 418q23 41 38 82t15 113q0 66 -20.5 91t-57.5 25h-116q-51 0 -64.5 14.5t-13.5 69.5v74q0 51 14.5 67.5t54.5 16.5h242q123 0 164 -84q23 -47 31 -114.5t8 -159.5q0 -72 -14.5 -130.5t-49.5 -129.5l-231 -465q-23 -41 14 -41h236 q35 0 50 -15.5t15 -62.5v-80q0 -49 -15 -66.5t-58 -17.5h-422q-41 0 -54.5 17.5t-13.5 70.5z" />
<glyph unicode="3" horiz-adv-x="577" d="M6 84v70q0 53 13.5 70.5t54.5 17.5h162q23 0 38 5t24 22.5t12 49t3 84.5q0 78 -14 115t-51 37h-111q-37 0 -49 16.5t-12 69.5v80q0 61 37 88q35 29 62.5 49.5t45.5 34.5q23 16 39 29q33 25 45 59.5t8 66t-21.5 54t-43.5 22.5h-166q-41 0 -54.5 15.5t-13.5 62.5v74 q0 53 13.5 71.5t54.5 18.5h237q57 0 99.5 -14.5t71 -51t43 -102t14.5 -168.5q0 -219 -121 -276q37 -31 51.5 -45.5t28.5 -36.5q14 -20 23.5 -44t15.5 -55.5t9 -75t3 -104.5q0 -109 -13.5 -183.5t-44 -121.5t-78.5 -67.5t-120 -20.5h-227q-41 0 -54.5 15.5t-13.5 68.5z" />
<glyph unicode="4" horiz-adv-x="722" d="M12 428v125q0 41 32 131t95 252q57 147 101.5 249.5t68.5 143.5q14 25 33.5 31t48.5 6h160q68 0 67 -88v-649q0 -10 2.5 -25.5t26.5 -15.5h25q25 0 34 -15.5t9 -58.5v-100q0 -66 -39 -66h-29q-18 0 -24.5 -10t-6.5 -39v-217q0 -49 -13 -65.5t-54 -16.5h-109 q-41 0 -53 15.5t-12 66.5v221q0 27 -6.5 36t-38.5 9h-252q-35 0 -50.5 18.5t-15.5 61.5zM250 601q0 -13 18 -13h78q16 0 22.5 11t6.5 40v281q0 25 -13 24q-10 0 -14 -14l-92 -293q-6 -23 -6 -36z" />
<glyph unicode="5" horiz-adv-x="581" d="M14 88v70q0 53 13.5 68.5t56.5 15.5h160q41 0 58 44t17 142q0 102 -17 145t-58 43h-140q-43 0 -57 13.5t-14 48.5v594q0 53 14 73.5t53 20.5h383q39 0 53.5 -19.5t14.5 -68.5v-70q0 -47 -14.5 -65.5t-49.5 -18.5h-182q-18 0 -24.5 -7t-6.5 -36v-186q0 -23 5.5 -30 t21.5 -7h41q49 0 92 -19.5t66 -52.5q18 -27 31.5 -57.5t21.5 -72.5t12 -98t4 -136q0 -225 -56 -323.5t-179 -98.5h-250q-45 0 -57.5 15.5t-12.5 72.5z" />
<glyph unicode="6" horiz-adv-x="671" d="M20 504q0 104 4.5 185t18.5 149.5t42 133t73 138.5l139 223q8 14 16.5 23.5t30.5 9.5h205q35 0 35 -29q0 -6 -2 -14t-13 -25l-235 -391q18 8 45 12.5t49 4.5q57 0 97 -15.5t69 -50.5q33 -39 45 -124t12 -255q0 -119 -10 -221t-37 -162q-29 -59 -87 -82.5t-169 -23.5 q-70 0 -116 5t-76.5 17.5t-50 31.5t-37.5 48q-14 25 -23.5 67t-14.5 97t-7.5 118.5t-2.5 129.5zM264 336q0 -57 15.5 -75.5t60.5 -18.5q39 0 53.5 19.5t14.5 72.5v260q0 49 -13.5 63.5t-60.5 14.5q-41 0 -55.5 -16.5t-14.5 -69.5v-250z" />
<glyph unicode="7" horiz-adv-x="589" d="M10 1210v72q0 53 13.5 68.5t56.5 15.5h434q37 0 51.5 -19.5t14.5 -66.5v-158q0 -31 -5.5 -61.5t-9.5 -50.5l-231 -947q-8 -33 -20.5 -48t-45.5 -15h-137q-25 0 -37 10t-12 39q0 23 8 49l240 936q4 20 8 39t4 29q0 23 -27 22h-231q-47 0 -60.5 15.5t-13.5 70.5z" />
<glyph unicode="8" horiz-adv-x="694" d="M25 420q0 152 27.5 227.5t92.5 104.5q-57 18 -81.5 84.5t-24.5 201.5q0 90 10 153.5t43 104.5t93.5 59.5t160.5 18.5t160.5 -18.5t93.5 -59.5t44 -104.5t11 -153.5q0 -135 -24.5 -201.5t-81.5 -84.5q66 -29 93.5 -104.5t27.5 -227.5q0 -111 -11.5 -193t-45 -134 t-97 -77.5t-170.5 -25.5q-106 0 -169.5 25.5t-97.5 77.5t-44 134t-10 193zM268 938q0 -47 14.5 -64.5t61.5 -17.5q43 0 58.5 17.5t15.5 64.5v102q0 47 -15.5 65.5t-58.5 18.5t-59.5 -17t-16.5 -65v-104zM270 299q0 -29 16.5 -43t59.5 -14q41 0 56.5 14t15.5 45v215 q0 47 -14.5 62.5t-61.5 15.5q-45 0 -58.5 -16.5t-13.5 -63.5v-215z" />
<glyph unicode="9" horiz-adv-x="671" d="M20 885q0 119 9.5 221t38.5 162q27 59 86 82.5t170 23.5q66 0 110.5 -5t76.5 -17.5t53.5 -32t39.5 -47.5q31 -45 39 -145.5t8 -247.5q0 -90 -4 -169t-16.5 -152t-35 -138.5t-60.5 -128.5l-158 -258q-10 -14 -17.5 -23.5t-29.5 -9.5h-205q-18 0 -25.5 9t-7.5 20q0 10 2 17 t10 22l238 393q-23 -12 -43 -16.5t-55 -4.5q-43 0 -88 13.5t-78 52.5q-16 20 -27.5 50t-17.5 74t-9.5 106.5t-3.5 148.5zM262 770q0 -49 13.5 -63.5t60.5 -14.5q41 0 56.5 16.5t15.5 69.5v250q0 57 -16.5 75.5t-61.5 18.5q-39 0 -53.5 -19.5t-14.5 -72.5v-260z" />
<glyph unicode=":" horiz-adv-x="286" d="M23 92v58q0 49 10 70.5t53 21.5h115q43 0 53 -21.5t10 -70.5v-58q0 -49 -10 -70.5t-53 -21.5h-115q-43 0 -53 21.5t-10 70.5zM23 631v57q0 49 10 70.5t53 21.5h115q43 0 53 -21.5t10 -70.5v-57q0 -49 -10 -70.5t-53 -21.5h-115q-43 0 -53 21.5t-10 70.5z" />
<glyph unicode=";" horiz-adv-x="286" d="M23 51v99q0 49 10 70.5t53 21.5h115q43 0 53 -21.5t10 -70.5v-64q0 -16 -3 -36.5t-19 -61.5l-39 -105q-14 -41 -43 -41h-99q-35 0 -20 35l37 88q10 25 4 30t-14 5h-13q-33 0 -32 51zM23 631v57q0 49 10 70.5t53 21.5h115q43 0 53 -21.5t10 -70.5v-57q0 -49 -10 -70.5 t-53 -21.5h-115q-43 0 -53 21.5t-10 70.5z" />
<glyph unicode="&#x3c;" horiz-adv-x="702" d="M20 412v106q0 43 14.5 51.5t43.5 26.5l522 332q41 27 59.5 21.5t20.5 -46.5l2 -84q2 -41 -5 -61.5t-48 -44.5l-393 -248l393 -248q35 -23 45 -45t8 -63l-2 -82q-2 -41 -20.5 -46.5t-59.5 21.5l-522 332q-29 18 -43.5 26.5t-14.5 51.5z" />
<glyph unicode="=" horiz-adv-x="770" d="M20 258v57q0 49 10.5 71t53.5 22h602q43 0 53.5 -21.5t10.5 -71.5v-57q0 -49 -10.5 -70.5t-53.5 -21.5h-602q-43 0 -53.5 21.5t-10.5 70.5zM20 625v57q0 49 10.5 70.5t53.5 21.5h602q43 0 53.5 -21.5t10.5 -70.5v-57q0 -49 -10.5 -71t-53.5 -22h-602q-43 0 -53.5 21.5 t-10.5 71.5z" />
<glyph unicode="&#x3e;" horiz-adv-x="702" d="M20 109q-2 41 8.5 63.5t45.5 44.5l393 248l-393 248q-41 25 -48.5 45t-5.5 61l3 84q2 41 20 46t59 -21l523 -332q29 -18 43 -26.5t14 -51.5v-106q0 -43 -14.5 -51.5t-42.5 -26.5l-523 -332q-41 -27 -59 -21.5t-20 46.5z" />
<glyph unicode="?" horiz-adv-x="548" d="M14 1210v70q0 86 68 86h246q51 0 89 -10t62.5 -40t35.5 -85.5t11 -147.5q0 -43 -2 -75.5t-8 -62.5t-16.5 -59.5t-26.5 -66.5l-80 -168q-14 -29 -17 -47t-3 -59v-133q0 -35 -14.5 -47.5t-49.5 -12.5h-102q-41 0 -54.5 15.5t-13.5 60.5v186q0 41 3 59.5t18 47.5l80 168 q16 35 25 56.5t13.5 36.5t5.5 29.5t1 35.5q0 41 -13.5 59t-54.5 18h-135q-68 0 -68 86zM139 92v58q0 49 10.5 70.5t53.5 21.5h106q43 0 53.5 -21.5t10.5 -70.5v-58q0 -49 -10.5 -70.5t-53.5 -21.5h-106q-43 0 -53.5 21.5t-10.5 70.5z" />
<glyph unicode="@" horiz-adv-x="991" d="M33 616q0 160 31.5 292t96 226.5t160 146.5t222.5 52q106 0 185 -40t131 -112.5t78 -172t26 -220.5q0 -111 -24 -202.5t-66 -158.5t-97 -103.5t-119 -36.5q-37 0 -61.5 24.5t-34.5 53.5q-23 -33 -55.5 -54.5t-73.5 -21.5q-39 0 -69.5 22.5t-53 60.5t-35 88t-12.5 105 q0 84 16.5 162t48 138.5t77 97t102.5 36.5q29 0 50.5 -17t33.5 -40q6 14 16 25.5t27 11.5h59q27 0 33 -16.5t6 -38.5q0 -12 -2 -27.5t-4 -32.5l-47 -350q-2 -10 -2 -20.5v-18.5q0 -10 5 -23.5t19 -13.5q33 0 68 86t35 269q0 174 -66.5 277.5t-197.5 103.5 q-86 0 -150.5 -44.5t-107.5 -119t-63.5 -176t-20.5 -218.5q0 -137 23.5 -226t65.5 -142t98 -74.5t122 -21.5q68 0 141.5 13t138.5 36q8 4 19 4q18 0 29 -29l22 -78q6 -14 6 -22q0 -14 -14 -23.5t-74 -25.5q-55 -14 -127 -24.5t-151 -10.5q-109 0 -195 37t-145.5 113.5 t-91 194.5t-31.5 279zM420 565q0 -78 12 -102.5t37 -24.5q37 0 68.5 71.5t31.5 225.5q0 66 -13 92.5t-40 26.5q-31 0 -63.5 -72.5t-32.5 -216.5z" />
<glyph unicode="A" horiz-adv-x="759" d="M6 31l166 1257q6 45 24.5 61.5t61.5 16.5h238q37 0 55 -17.5t24 -62.5l179 -1255v-6q0 -25 -31 -25h-195q-16 0 -23 7t-11 30l-39 289q-4 20 -11.5 26t-23.5 6h-86q-16 0 -23.5 -5t-11.5 -27l-33 -293q-2 -20 -8 -26.5t-29 -6.5h-188q-37 0 -35 31zM324 623v-5 q0 -18 26 -18h51q33 0 29 23l-39 471q-2 30 -15 30h-1q-14 0 -17 -32z" />
<glyph unicode="B" horiz-adv-x="739" d="M53 90v1188q0 49 14.5 68.5t51.5 19.5h370q66 0 106 -26.5t61.5 -72.5t28.5 -109.5t7 -135.5q0 -129 -25.5 -201.5t-84.5 -107.5q63 -25 96 -113t33 -231q0 -80 -10.5 -147.5t-35 -117t-67.5 -77t-109 -27.5h-370q-39 0 -52.5 18.5t-13.5 71.5zM293 283q0 -23 6 -32 t29 -9h39q61 0 80.5 35t19.5 135q0 55 -6 89t-18.5 53t-32 25.5t-43.5 6.5h-39q-23 0 -29 -8.5t-6 -32.5v-262zM293 868q0 -23 6 -32t29 -9h39q55 0 70.5 32t15.5 116q0 49 -6.5 77.5t-17.5 45t-26.5 21.5t-35.5 5h-39q-23 0 -29 -8t-6 -33v-215z" />
<glyph unicode="C" horiz-adv-x="593" d="M35 657q0 207 5 343.5t28.5 217t70.5 114.5t131 34h254q35 0 49.5 -15.5t14.5 -56.5v-92q0 -47 -13.5 -62.5t-54.5 -15.5h-155q-29 0 -46.5 -8t-25.5 -51t-10 -133t-2 -252q0 -160 3 -248t11 -131t23.5 -51t41.5 -8h160q37 0 51.5 -15.5t14.5 -54.5v-98 q0 -41 -13.5 -57.5t-48.5 -16.5h-243q-78 0 -126.5 26.5t-75 98.5t-35.5 201t-9 331z" />
<glyph unicode="D" horiz-adv-x="749" d="M53 88v1186q0 51 14.5 71.5t51.5 20.5h350q86 0 135 -36t73.5 -118t31 -211t6.5 -317q0 -223 -10.5 -357t-38 -207t-78.5 -96.5t-131 -23.5h-332q-45 0 -58.5 16.5t-13.5 71.5zM287 297q0 -39 11 -47t64 -8q37 0 59.5 8t33 48t13.5 126t3 240q0 170 -2 263t-13.5 137 t-34 52t-65.5 8t-56 -10t-13 -51v-766z" />
<glyph unicode="E" horiz-adv-x="616" d="M53 90v1186q0 51 15.5 70.5t54.5 19.5h405q39 0 52.5 -15.5t13.5 -64.5v-76q0 -51 -13.5 -68.5t-52.5 -17.5h-200q-23 0 -30 -8t-7 -37v-190q0 -29 5 -36t32 -7h102q35 0 47 -14.5t12 -55.5v-104q0 -41 -13 -54.5t-46 -13.5h-102q-23 0 -30 -6t-7 -25v-286q0 -25 7 -35 t36 -10h203q41 0 57 -19.5t16 -68.5v-66q0 -47 -16 -67.5t-53 -20.5h-418q-41 0 -55.5 18.5t-14.5 71.5z" />
<glyph unicode="F" horiz-adv-x="587" d="M53 86v1186q0 57 13.5 75.5t54.5 18.5h389q41 0 56.5 -19.5t15.5 -68.5v-72q0 -47 -14.5 -64.5t-49.5 -17.5h-188q-25 0 -31 -10t-6 -45v-186q0 -23 5 -30t21 -7h115q37 0 49.5 -16.5t12.5 -65.5v-72q0 -51 -13.5 -69.5t-50.5 -18.5h-102q-25 0 -31 -9t-6 -44v-465 q0 -49 -12.5 -67.5t-47.5 -18.5h-114q-39 0 -52.5 17.5t-13.5 68.5z" />
<glyph unicode="G" d="M35 678q0 170 4 298t26.5 215t69.5 131t133 44h279q39 0 54 -15.5t15 -70.5v-66q0 -51 -13 -70.5t-50 -19.5h-147q-45 0 -71 -7t-38 -50t-15 -135t-3 -260v-299q0 -74 30.5 -102.5t77.5 -28.5q41 0 69.5 27.5t28.5 80.5v201q0 31 -4 42t-20 11h-60q-29 0 -32.5 16.5 t-3.5 47.5v94q0 45 12 64.5t63 19.5h195q41 0 52 -21.5t11 -68.5v-355q0 -96 -10 -171.5t-43 -128t-95.5 -79t-166.5 -26.5q-131 0 -202.5 42t-103.5 126t-37 212t-5 302z" />
<glyph unicode="H" horiz-adv-x="774" d="M53 90v1188q0 49 15.5 68.5t52.5 19.5h110q35 0 48.5 -20.5t13.5 -65.5v-395q0 -25 7 -32t24 -7h127q16 0 23 7t7 32v395q0 45 13.5 65.5t48.5 20.5h110q37 0 52.5 -19.5t15.5 -68.5v-1188q0 -53 -14.5 -71.5t-53.5 -18.5h-108q-41 0 -52.5 21.5t-11.5 66.5v473 q0 25 -6 34t-26 9h-123q-20 0 -26.5 -9t-6.5 -34v-473q0 -45 -11.5 -66.5t-52.5 -21.5h-108q-39 0 -53.5 18.5t-14.5 71.5z" />
<glyph unicode="I" horiz-adv-x="348" d="M53 90v1184q0 53 14.5 72.5t53.5 19.5h110q35 0 49.5 -19.5t14.5 -72.5v-1188q0 -55 -14.5 -70.5t-53.5 -15.5h-102q-43 0 -57.5 17.5t-14.5 72.5z" />
<glyph unicode="J" horiz-adv-x="471" d="M6 84v76q0 53 14.5 67.5t51.5 14.5h53q35 0 50 16t15 74v948q0 53 13.5 69.5t56.5 16.5h102q43 0 56.5 -16.5t13.5 -67.5v-932q0 -72 -10 -130t-37 -107q-33 -59 -81 -86t-126 -27h-100q-45 0 -58.5 15.5t-13.5 68.5z" />
<glyph unicode="K" horiz-adv-x="768" d="M53 90v1184q0 53 14.5 72.5t53.5 19.5h110q35 0 49.5 -19.5t14.5 -72.5v-305q0 -20 8 -23q10 -2 23 23l151 319q20 43 32.5 60.5t45.5 17.5h182q25 0 25 -25q0 -12 -6 -24l-203 -393q-10 -18 -12 -39q-2 -12 0 -21.5t6 -21.5l207 -781q10 -41 2 -51t-35 -10h-168 q-27 0 -38 12.5t-19 46.5l-97 455q-6 29 -10 46.5t-14 17.5q-6 0 -10.5 -2.5t-10.5 -9.5t-15 -24.5t-26 -47.5q-12 -23 -15 -50.5t-3 -64.5v-293q0 -55 -14.5 -70.5t-53.5 -15.5h-102q-43 0 -57.5 17.5t-14.5 72.5z" />
<glyph unicode="L" horiz-adv-x="569" d="M53 90v1188q0 47 15.5 67.5t52.5 20.5h108q41 0 53.5 -19.5t12.5 -68.5v-993q0 -25 8 -34t25 -9h166q41 0 55 -18.5t14 -67.5v-68q0 -47 -17.5 -67.5t-58.5 -20.5h-366q-41 0 -54.5 17.5t-13.5 72.5z" />
<glyph unicode="M" horiz-adv-x="954" d="M53 88v1194q0 51 12.5 67.5t53.5 16.5h112q49 0 64.5 -10t28.5 -53l137 -492q6 -18 16 -18t17 18l137 492q12 43 27.5 53t64.5 10h113q41 0 53 -16.5t12 -67.5v-1194q0 -55 -12 -71.5t-55 -16.5h-109q-41 0 -53.5 18.5t-12.5 67.5v555v31.5t-8 17.5q-6 0 -10 -14t-8 -31 l-82 -405q-8 -39 -24.5 -50.5t-49.5 -11.5t-49 11.5t-25 50.5l-81 405q-4 16 -8.5 30.5t-10.5 14.5q-8 0 -8 -17.5v-31.5v-555q0 -49 -12.5 -67.5t-53.5 -18.5h-108q-43 0 -55.5 16.5t-12.5 71.5z" />
<glyph unicode="N" horiz-adv-x="800" d="M53 92v1184q0 53 14.5 71.5t57.5 18.5h94q37 0 50.5 -10t29.5 -53l172 -508q6 -18 11 -23.5t12 -5.5q6 0 8 8t2 31v471q0 47 13 68.5t50 21.5h107q35 0 54.5 -16.5t19.5 -75.5v-1182q0 -53 -14.5 -72.5t-57.5 -19.5h-94q-37 0 -50.5 10t-29.5 53l-172 510 q-6 18 -11.5 23.5t-11.5 5.5t-8 -8t-2 -31v-473q0 -47 -13.5 -68.5t-50.5 -21.5h-106q-35 0 -54.5 16.5t-19.5 75.5z" />
<glyph unicode="O" d="M35 686q0 154 5 281t35.5 219t97.5 143t192 51q123 0 190.5 -51t98 -143t35.5 -219t5 -281t-5 -283t-35.5 -222t-98.5 -146t-190 -53q-125 0 -192 53t-97.5 146t-35.5 222t-5 283zM274 686q0 -135 2.5 -221t10.5 -136t26.5 -68.5t51.5 -18.5t51 18.5t26.5 68.5t10.5 136 t2 221t-2 220t-10.5 133t-27 65.5t-50.5 17.5q-33 0 -51.5 -17.5t-26.5 -65.5t-10.5 -133t-2.5 -220z" />
<glyph unicode="P" horiz-adv-x="710" d="M53 88v1184q0 53 14.5 73.5t51.5 20.5h315q129 0 195.5 -109.5t66.5 -326.5q0 -207 -58 -314.5t-171 -107.5h-172v-420q0 -53 -12.5 -70.5t-53.5 -17.5h-110q-41 0 -53.5 16.5t-12.5 71.5zM295 784q0 -34 29 -34h2h67q16 0 27.5 6t18.5 24.5t11.5 54.5t4.5 97t-4.5 99 t-12.5 58.5t-20 27.5t-31 7h-59q-16 0 -24.5 -6t-8.5 -31v-303z" />
<glyph unicode="Q" d="M35 686q0 154 5 281t35.5 219t97.5 143t189 51q125 0 192 -51t97.5 -143t35.5 -219t5 -281q0 -98 -1 -188t-10 -167t-26.5 -139.5t-52.5 -107.5l115 -123q18 -19 18 -34q0 -19 -28 -31l-136 -60q-11 -6 -21 -6q-8 0 -14 4q-16 8 -38 37l-88 113q-10 0 -22.5 -1t-25.5 -1 q-123 0 -189.5 53t-97 146t-35.5 222t-5 283zM272 686q0 -135 2 -221t10.5 -136t27 -68.5t50.5 -18.5q33 0 51.5 18.5t28 68.5t11.5 136t2 221t-2 220t-11.5 133t-28 65.5t-51.5 17.5t-51 -17.5t-26.5 -65.5t-10.5 -133t-2 -220z" />
<glyph unicode="R" horiz-adv-x="718" d="M53 88v1186q0 53 14.5 72.5t55.5 19.5h293q280 0 280 -419q0 -120 -25.5 -189.5t-84.5 -120.5l119 -582q4 -20 4 -26q0 -29 -37 -29h-160q-29 0 -39 11.5t-16 47.5l-84 492q-4 14 -9.5 16t-15.5 2h-29q-10 0 -16 -1t-6 -17v-465q0 -47 -15.5 -66.5t-52.5 -19.5h-110 q-39 0 -52.5 17.5t-13.5 70.5zM297 848q0 -37 20 -37h68q37 0 55.5 38t18.5 126t-18.5 118.5t-51.5 30.5h-65q-27 0 -27 -28v-248z" />
<glyph unicode="S" horiz-adv-x="618" d="M10 1118q0 139 63.5 193.5t190.5 54.5h234q31 0 44 -16.5t13 -57.5v-90q0 -43 -14.5 -60.5t-48.5 -17.5h-183q-51 0 -60 -38q-2 -10 -2 -21q0 -29 17 -61l219 -404q41 -76 65.5 -130t38 -97t17.5 -79t4 -75q0 -123 -60.5 -171t-158.5 -48h-305q-41 0 -54.5 16.5 t-13.5 67.5v72q0 53 12.5 69.5t53.5 16.5h211q45 0 52 34q2 10 2 20q0 23 -11 46l-232 436q-33 63 -52 113.5t-28.5 91.5t-11.5 74t-2 61z" />
<glyph unicode="T" horiz-adv-x="645" d="M6 1206v70q0 53 13.5 71.5t54.5 18.5h499q37 0 51.5 -17.5t14.5 -64.5v-76q0 -49 -13.5 -66.5t-50.5 -17.5h-106q-16 0 -21.5 -8t-5.5 -33v-993q0 -53 -12 -71.5t-53 -18.5h-107q-41 0 -55 17.5t-14 66.5v999q0 29 -7.5 35t-19.5 6h-106q-37 0 -49.5 15.5t-12.5 66.5z " />
<glyph unicode="U" horiz-adv-x="741" d="M41 379v897q0 53 15.5 71.5t56.5 18.5h108q37 0 49.5 -17.5t12.5 -66.5v-934q0 -57 20.5 -81.5t69.5 -24.5q47 0 66.5 24.5t19.5 83.5v932q0 51 12 67.5t53 16.5h113q41 0 52 -16.5t11 -67.5v-893q0 -84 -11 -157.5t-46 -129t-101.5 -88t-174.5 -32.5q-102 0 -166 26.5 t-99.5 77.5t-48 125t-12.5 168z" />
<glyph unicode="V" horiz-adv-x="745" d="M6 1311q-2 12 -2 22q0 14 4 21q6 12 35 12h158q25 0 37 -10t18 -56l98 -778q4 -31 19 -30q16 0 18 30l98 778q6 45 18.5 55.5t37.5 10.5h157q29 0 35 -12q4 -8 4 -22q0 -9 -2 -21l-202 -1256q-4 -31 -16.5 -43t-39.5 -12h-217q-27 0 -39 12.5t-16 42.5z" />
<glyph unicode="W" horiz-adv-x="1132" d="M8 1290q-3 17 -3 30q-1 26 11 34q16 12 43 12h140q25 0 35 -12.5t14 -46.5l96 -666q4 -16 8 -21.5t10 -5.5t9.5 5.5t7.5 21.5l92 393l-29 258q-4 29 3.5 51.5t48.5 22.5h143q27 0 37 -12.5t14 -46.5l80 -664q2 -29 16 -29t17 29l82 670q6 53 47 53h149q29 0 40 -14 q6 -8 6 -28q0 -14 -3 -32l-213 -1233q-6 -33 -18 -46t-39 -13h-160q-31 0 -42 11.5t-15 49.5l-57 457q0 8 -2.5 16.5t-8.5 8.5t-9 -7.5t-5 -15.5l-113 -479q-8 -41 -55 -41h-133q-27 0 -37 10t-14 41z" />
<glyph unicode="X" horiz-adv-x="700" d="M7 18q-3 7 -3 18q0 16 6 40l135 633l-135 583q-5 19 -5 33q1 17 7 25q12 16 39 16h156q41 0 53 -55l74 -385q4 -16 6 -21.5t10 -5.5t10 5t7 22l73 385q12 55 54 55h155q29 0 40 -16q6 -9 6 -25q0 -14 -5 -33l-137 -583l137 -633q6 -24 6 -40q0 -10 -3 -18q-7 -18 -36 -18 h-159q-47 0 -56 51l-73 424q-6 25 -19 25q-12 0 -18 -25l-74 -424q-8 -51 -55 -51h-160q-29 0 -36 18z" />
<glyph unicode="Y" horiz-adv-x="704" d="M4 1342q6 24 39 24h137q23 0 34 -8t19 -41l105 -445q4 -14 6 -18t8 -4t8 4t7 18l104 445q8 33 19.5 41t33.5 8h138q33 0 39 -24q2 -9 2 -19q0 -14 -5 -29l-225 -772v-434q0 -53 -13.5 -70.5t-53.5 -17.5h-107q-41 0 -54.5 17.5t-13.5 70.5v434l-225 772q-5 14 -5 28 q0 10 3 20z" />
<glyph unicode="Z" horiz-adv-x="636" d="M16 82v154v23t2 26.5t9.5 37t21.5 54.5l326 710q8 16 4 26.5t-21 10.5h-256q-45 0 -56 14.5t-11 69.5v72q0 53 12 69.5t53 16.5h457q61 0 61 -80v-172q0 -18 -6 -42.5t-22 -61.5l-326 -719q-10 -18 -7 -33.5t26 -15.5h272q39 0 52.5 -17.5t13.5 -70.5v-70 q0 -49 -15.5 -66.5t-58.5 -17.5h-465q-41 0 -53.5 16.5t-12.5 65.5z" />
<glyph unicode="[" horiz-adv-x="460" d="M53 -61v1443q0 53 14.5 74t51.5 21h246q43 0 53 -16.5t10 -55.5v-49q0 -35 -10 -53.5t-53 -18.5h-119v-1243h119q43 0 53 -18.5t10 -51.5v-49q0 -37 -10 -54.5t-53 -17.5h-246q-41 0 -53.5 16.5t-12.5 72.5z" />
<glyph unicode="\" horiz-adv-x="385" d="M10 1352q-8 51 21 51h92q33 0 39 -43l213 -1350q8 -51 -21 -51h-92q-33 0 -39 43z" />
<glyph unicode="]" horiz-adv-x="460" d="M33 -29q0 33 10 51.5t53 18.5h119v1243h-119q-43 0 -53 18.5t-10 53.5v49q0 39 10 55.5t53 16.5h246q37 0 51.5 -20.5t14.5 -74.5v-1443q0 -55 -12.5 -72t-53.5 -17h-246q-43 0 -53 17.5t-10 54.5v49z" />
<glyph unicode="^" horiz-adv-x="827" d="M14 700.5q-2 16.5 19 61.5l250 547q14 31 24 44t53 13h107q43 0 53 -13.5t25 -43.5l250 -547q20 -45 18 -61.5t-43 -18.5l-84 -2q-41 -2 -64.5 4t-41.5 49l-166 402l-166 -402q-16 -39 -42 -47t-67 -6l-82 2q-41 2 -43 18.5z" />
<glyph unicode="_" horiz-adv-x="737" d="M0 -135h737v-123h-737v123z" />
<glyph unicode="`" horiz-adv-x="321" d="M-23 1589q0 27 29 27h180q14 0 21.5 -5t23.5 -28l93 -121q10 -12 10 -26q0 -18 -23 -19h-127q-18 0 -25 4t-20 15l-141 120q-20 18 -21 33z" />
<glyph unicode="a" horiz-adv-x="759" d="M6 31l166 1257q6 45 24.5 61.5t61.5 16.5h238q37 0 55 -17.5t24 -62.5l179 -1255v-6q0 -25 -31 -25h-195q-16 0 -23 7t-11 30l-39 289q-4 20 -11.5 26t-23.5 6h-86q-16 0 -23.5 -5t-11.5 -27l-33 -293q-2 -20 -8 -26.5t-29 -6.5h-188q-37 0 -35 31zM324 623v-5 q0 -18 26 -18h51q33 0 29 23l-39 471q-2 30 -15 30h-1q-14 0 -17 -32z" />
<glyph unicode="b" horiz-adv-x="739" d="M53 90v1188q0 49 14.5 68.5t51.5 19.5h370q66 0 106 -26.5t61.5 -72.5t28.5 -109.5t7 -135.5q0 -129 -25.5 -201.5t-84.5 -107.5q63 -25 96 -113t33 -231q0 -80 -10.5 -147.5t-35 -117t-67.5 -77t-109 -27.5h-370q-39 0 -52.5 18.5t-13.5 71.5zM293 283q0 -23 6 -32 t29 -9h39q61 0 80.5 35t19.5 135q0 55 -6 89t-18.5 53t-32 25.5t-43.5 6.5h-39q-23 0 -29 -8.5t-6 -32.5v-262zM293 868q0 -23 6 -32t29 -9h39q55 0 70.5 32t15.5 116q0 49 -6.5 77.5t-17.5 45t-26.5 21.5t-35.5 5h-39q-23 0 -29 -8t-6 -33v-215z" />
<glyph unicode="c" horiz-adv-x="593" d="M35 657q0 207 5 343.5t28.5 217t70.5 114.5t131 34h254q35 0 49.5 -15.5t14.5 -56.5v-92q0 -47 -13.5 -62.5t-54.5 -15.5h-155q-29 0 -46.5 -8t-25.5 -51t-10 -133t-2 -252q0 -160 3 -248t11 -131t23.5 -51t41.5 -8h160q37 0 51.5 -15.5t14.5 -54.5v-98 q0 -41 -13.5 -57.5t-48.5 -16.5h-243q-78 0 -126.5 26.5t-75 98.5t-35.5 201t-9 331z" />
<glyph unicode="d" horiz-adv-x="749" d="M53 88v1186q0 51 14.5 71.5t51.5 20.5h350q86 0 135 -36t73.5 -118t31 -211t6.5 -317q0 -223 -10.5 -357t-38 -207t-78.5 -96.5t-131 -23.5h-332q-45 0 -58.5 16.5t-13.5 71.5zM287 297q0 -39 11 -47t64 -8q37 0 59.5 8t33 48t13.5 126t3 240q0 170 -2 263t-13.5 137 t-34 52t-65.5 8t-56 -10t-13 -51v-766z" />
<glyph unicode="e" horiz-adv-x="616" d="M53 90v1186q0 51 15.5 70.5t54.5 19.5h405q39 0 52.5 -15.5t13.5 -64.5v-76q0 -51 -13.5 -68.5t-52.5 -17.5h-200q-23 0 -30 -8t-7 -37v-190q0 -29 5 -36t32 -7h102q35 0 47 -14.5t12 -55.5v-104q0 -41 -13 -54.5t-46 -13.5h-102q-23 0 -30 -6t-7 -25v-286q0 -25 7 -35 t36 -10h203q41 0 57 -19.5t16 -68.5v-66q0 -47 -16 -67.5t-53 -20.5h-418q-41 0 -55.5 18.5t-14.5 71.5z" />
<glyph unicode="f" horiz-adv-x="587" d="M53 86v1186q0 57 13.5 75.5t54.5 18.5h389q41 0 56.5 -19.5t15.5 -68.5v-72q0 -47 -14.5 -64.5t-49.5 -17.5h-188q-25 0 -31 -10t-6 -45v-186q0 -23 5 -30t21 -7h115q37 0 49.5 -16.5t12.5 -65.5v-72q0 -51 -13.5 -69.5t-50.5 -18.5h-102q-25 0 -31 -9t-6 -44v-465 q0 -49 -12.5 -67.5t-47.5 -18.5h-114q-39 0 -52.5 17.5t-13.5 68.5z" />
<glyph unicode="g" d="M35 678q0 170 4 298t26.5 215t69.5 131t133 44h279q39 0 54 -15.5t15 -70.5v-66q0 -51 -13 -70.5t-50 -19.5h-147q-45 0 -71 -7t-38 -50t-15 -135t-3 -260v-299q0 -74 30.5 -102.5t77.5 -28.5q41 0 69.5 27.5t28.5 80.5v201q0 31 -4 42t-20 11h-60q-29 0 -32.5 16.5 t-3.5 47.5v94q0 45 12 64.5t63 19.5h195q41 0 52 -21.5t11 -68.5v-355q0 -96 -10 -171.5t-43 -128t-95.5 -79t-166.5 -26.5q-131 0 -202.5 42t-103.5 126t-37 212t-5 302z" />
<glyph unicode="h" horiz-adv-x="774" d="M53 90v1188q0 49 15.5 68.5t52.5 19.5h110q35 0 48.5 -20.5t13.5 -65.5v-395q0 -25 7 -32t24 -7h127q16 0 23 7t7 32v395q0 45 13.5 65.5t48.5 20.5h110q37 0 52.5 -19.5t15.5 -68.5v-1188q0 -53 -14.5 -71.5t-53.5 -18.5h-108q-41 0 -52.5 21.5t-11.5 66.5v473 q0 25 -6 34t-26 9h-123q-20 0 -26.5 -9t-6.5 -34v-473q0 -45 -11.5 -66.5t-52.5 -21.5h-108q-39 0 -53.5 18.5t-14.5 71.5z" />
<glyph unicode="i" horiz-adv-x="348" d="M53 90v1184q0 53 14.5 72.5t53.5 19.5h110q35 0 49.5 -19.5t14.5 -72.5v-1188q0 -55 -14.5 -70.5t-53.5 -15.5h-102q-43 0 -57.5 17.5t-14.5 72.5z" />
<glyph unicode="j" horiz-adv-x="471" d="M6 84v76q0 53 14.5 67.5t51.5 14.5h53q35 0 50 16t15 74v948q0 53 13.5 69.5t56.5 16.5h102q43 0 56.5 -16.5t13.5 -67.5v-932q0 -72 -10 -130t-37 -107q-33 -59 -81 -86t-126 -27h-100q-45 0 -58.5 15.5t-13.5 68.5z" />
<glyph unicode="k" horiz-adv-x="768" d="M53 90v1184q0 53 14.5 72.5t53.5 19.5h110q35 0 49.5 -19.5t14.5 -72.5v-305q0 -20 8 -23q10 -2 23 23l151 319q20 43 32.5 60.5t45.5 17.5h182q25 0 25 -25q0 -12 -6 -24l-203 -393q-10 -18 -12 -39q-2 -12 0 -21.5t6 -21.5l207 -781q10 -41 2 -51t-35 -10h-168 q-27 0 -38 12.5t-19 46.5l-97 455q-6 29 -10 46.5t-14 17.5q-6 0 -10.5 -2.5t-10.5 -9.5t-15 -24.5t-26 -47.5q-12 -23 -15 -50.5t-3 -64.5v-293q0 -55 -14.5 -70.5t-53.5 -15.5h-102q-43 0 -57.5 17.5t-14.5 72.5z" />
<glyph unicode="l" horiz-adv-x="569" d="M53 90v1188q0 47 15.5 67.5t52.5 20.5h108q41 0 53.5 -19.5t12.5 -68.5v-993q0 -25 8 -34t25 -9h166q41 0 55 -18.5t14 -67.5v-68q0 -47 -17.5 -67.5t-58.5 -20.5h-366q-41 0 -54.5 17.5t-13.5 72.5z" />
<glyph unicode="m" horiz-adv-x="954" d="M53 88v1194q0 51 12.5 67.5t53.5 16.5h112q49 0 64.5 -10t28.5 -53l137 -492q6 -18 16 -18t17 18l137 492q12 43 27.5 53t64.5 10h113q41 0 53 -16.5t12 -67.5v-1194q0 -55 -12 -71.5t-55 -16.5h-109q-41 0 -53.5 18.5t-12.5 67.5v555v31.5t-8 17.5q-6 0 -10 -14t-8 -31 l-82 -405q-8 -39 -24.5 -50.5t-49.5 -11.5t-49 11.5t-25 50.5l-81 405q-4 16 -8.5 30.5t-10.5 14.5q-8 0 -8 -17.5v-31.5v-555q0 -49 -12.5 -67.5t-53.5 -18.5h-108q-43 0 -55.5 16.5t-12.5 71.5z" />
<glyph unicode="n" horiz-adv-x="800" d="M53 92v1184q0 53 14.5 71.5t57.5 18.5h94q37 0 50.5 -10t29.5 -53l172 -508q6 -18 11 -23.5t12 -5.5q6 0 8 8t2 31v471q0 47 13 68.5t50 21.5h107q35 0 54.5 -16.5t19.5 -75.5v-1182q0 -53 -14.5 -72.5t-57.5 -19.5h-94q-37 0 -50.5 10t-29.5 53l-172 510 q-6 18 -11.5 23.5t-11.5 5.5t-8 -8t-2 -31v-473q0 -47 -13.5 -68.5t-50.5 -21.5h-106q-35 0 -54.5 16.5t-19.5 75.5z" />
<glyph unicode="o" d="M35 686q0 154 5 281t35.5 219t97.5 143t192 51q123 0 190.5 -51t98 -143t35.5 -219t5 -281t-5 -283t-35.5 -222t-98.5 -146t-190 -53q-125 0 -192 53t-97.5 146t-35.5 222t-5 283zM274 686q0 -135 2.5 -221t10.5 -136t26.5 -68.5t51.5 -18.5t51 18.5t26.5 68.5t10.5 136 t2 221t-2 220t-10.5 133t-27 65.5t-50.5 17.5q-33 0 -51.5 -17.5t-26.5 -65.5t-10.5 -133t-2.5 -220z" />
<glyph unicode="p" horiz-adv-x="710" d="M53 88v1184q0 53 14.5 73.5t51.5 20.5h315q129 0 195.5 -109.5t66.5 -326.5q0 -207 -58 -314.5t-171 -107.5h-172v-420q0 -53 -12.5 -70.5t-53.5 -17.5h-110q-41 0 -53.5 16.5t-12.5 71.5zM295 784q0 -34 29 -34h2h67q16 0 27.5 6t18.5 24.5t11.5 54.5t4.5 97t-4.5 99 t-12.5 58.5t-20 27.5t-31 7h-59q-16 0 -24.5 -6t-8.5 -31v-303z" />
<glyph unicode="q" d="M35 686q0 154 5 281t35.5 219t97.5 143t189 51q125 0 192 -51t97.5 -143t35.5 -219t5 -281q0 -98 -1 -188t-10 -167t-26.5 -139.5t-52.5 -107.5l115 -123q18 -19 18 -34q0 -19 -28 -31l-136 -60q-11 -6 -21 -6q-8 0 -14 4q-16 8 -38 37l-88 113q-10 0 -22.5 -1t-25.5 -1 q-123 0 -189.5 53t-97 146t-35.5 222t-5 283zM272 686q0 -135 2 -221t10.5 -136t27 -68.5t50.5 -18.5q33 0 51.5 18.5t28 68.5t11.5 136t2 221t-2 220t-11.5 133t-28 65.5t-51.5 17.5t-51 -17.5t-26.5 -65.5t-10.5 -133t-2 -220z" />
<glyph unicode="r" horiz-adv-x="718" d="M53 88v1186q0 53 14.5 72.5t55.5 19.5h293q280 0 280 -419q0 -120 -25.5 -189.5t-84.5 -120.5l119 -582q4 -20 4 -26q0 -29 -37 -29h-160q-29 0 -39 11.5t-16 47.5l-84 492q-4 14 -9.5 16t-15.5 2h-29q-10 0 -16 -1t-6 -17v-465q0 -47 -15.5 -66.5t-52.5 -19.5h-110 q-39 0 -52.5 17.5t-13.5 70.5zM297 848q0 -37 20 -37h68q37 0 55.5 38t18.5 126t-18.5 118.5t-51.5 30.5h-65q-27 0 -27 -28v-248z" />
<glyph unicode="s" horiz-adv-x="618" d="M10 1118q0 139 63.5 193.5t190.5 54.5h234q31 0 44 -16.5t13 -57.5v-90q0 -43 -14.5 -60.5t-48.5 -17.5h-183q-51 0 -60 -38q-2 -10 -2 -21q0 -29 17 -61l219 -404q41 -76 65.5 -130t38 -97t17.5 -79t4 -75q0 -123 -60.5 -171t-158.5 -48h-305q-41 0 -54.5 16.5 t-13.5 67.5v72q0 53 12.5 69.5t53.5 16.5h211q45 0 52 34q2 10 2 20q0 23 -11 46l-232 436q-33 63 -52 113.5t-28.5 91.5t-11.5 74t-2 61z" />
<glyph unicode="t" horiz-adv-x="645" d="M6 1206v70q0 53 13.5 71.5t54.5 18.5h499q37 0 51.5 -17.5t14.5 -64.5v-76q0 -49 -13.5 -66.5t-50.5 -17.5h-106q-16 0 -21.5 -8t-5.5 -33v-993q0 -53 -12 -71.5t-53 -18.5h-107q-41 0 -55 17.5t-14 66.5v999q0 29 -7.5 35t-19.5 6h-106q-37 0 -49.5 15.5t-12.5 66.5z " />
<glyph unicode="u" horiz-adv-x="741" d="M41 379v897q0 53 15.5 71.5t56.5 18.5h108q37 0 49.5 -17.5t12.5 -66.5v-934q0 -57 20.5 -81.5t69.5 -24.5q47 0 66.5 24.5t19.5 83.5v932q0 51 12 67.5t53 16.5h113q41 0 52 -16.5t11 -67.5v-893q0 -84 -11 -157.5t-46 -129t-101.5 -88t-174.5 -32.5q-102 0 -166 26.5 t-99.5 77.5t-48 125t-12.5 168z" />
<glyph unicode="v" horiz-adv-x="745" d="M6 1311q-2 12 -2 22q0 14 4 21q6 12 35 12h158q25 0 37 -10t18 -56l98 -778q4 -31 19 -30q16 0 18 30l98 778q6 45 18.5 55.5t37.5 10.5h157q29 0 35 -12q4 -8 4 -22q0 -9 -2 -21l-202 -1256q-4 -31 -16.5 -43t-39.5 -12h-217q-27 0 -39 12.5t-16 42.5z" />
<glyph unicode="w" horiz-adv-x="1132" d="M8 1290q-3 17 -3 30q-1 26 11 34q16 12 43 12h140q25 0 35 -12.5t14 -46.5l96 -666q4 -16 8 -21.5t10 -5.5t9.5 5.5t7.5 21.5l92 393l-29 258q-4 29 3.5 51.5t48.5 22.5h143q27 0 37 -12.5t14 -46.5l80 -664q2 -29 16 -29t17 29l82 670q6 53 47 53h149q29 0 40 -14 q6 -8 6 -28q0 -14 -3 -32l-213 -1233q-6 -33 -18 -46t-39 -13h-160q-31 0 -42 11.5t-15 49.5l-57 457q0 8 -2.5 16.5t-8.5 8.5t-9 -7.5t-5 -15.5l-113 -479q-8 -41 -55 -41h-133q-27 0 -37 10t-14 41z" />
<glyph unicode="x" horiz-adv-x="700" d="M7 18q-3 7 -3 18q0 16 6 40l135 633l-135 583q-5 19 -5 33q1 17 7 25q12 16 39 16h156q41 0 53 -55l74 -385q4 -16 6 -21.5t10 -5.5t10 5t7 22l73 385q12 55 54 55h155q29 0 40 -16q6 -9 6 -25q0 -14 -5 -33l-137 -583l137 -633q6 -24 6 -40q0 -10 -3 -18q-7 -18 -36 -18 h-159q-47 0 -56 51l-73 424q-6 25 -19 25q-12 0 -18 -25l-74 -424q-8 -51 -55 -51h-160q-29 0 -36 18z" />
<glyph unicode="y" horiz-adv-x="704" d="M4 1342q6 24 39 24h137q23 0 34 -8t19 -41l105 -445q4 -14 6 -18t8 -4t8 4t7 18l104 445q8 33 19.5 41t33.5 8h138q33 0 39 -24q2 -9 2 -19q0 -14 -5 -29l-225 -772v-434q0 -53 -13.5 -70.5t-53.5 -17.5h-107q-41 0 -54.5 17.5t-13.5 70.5v434l-225 772q-5 14 -5 28 q0 10 3 20z" />
<glyph unicode="z" horiz-adv-x="636" d="M16 82v154v23t2 26.5t9.5 37t21.5 54.5l326 710q8 16 4 26.5t-21 10.5h-256q-45 0 -56 14.5t-11 69.5v72q0 53 12 69.5t53 16.5h457q61 0 61 -80v-172q0 -18 -6 -42.5t-22 -61.5l-326 -719q-10 -18 -7 -33.5t26 -15.5h272q39 0 52.5 -17.5t13.5 -70.5v-70 q0 -49 -15.5 -66.5t-58.5 -17.5h-465q-41 0 -53.5 16.5t-12.5 65.5z" />
<glyph unicode="{" horiz-adv-x="485" d="M33 598v123q0 16 7 24.5t17.5 13.5t21.5 10t21 13q31 27 37 67t6 77v301q0 49 6.5 94t26 80t55 55.5t95.5 20.5h71q41 0 48.5 -18.5t7.5 -53.5v-49q0 -39 -8.5 -52.5t-21.5 -16.5t-28.5 -3t-29 -9t-21.5 -38t-8 -88v-244q0 -37 -1 -74.5t-12.5 -70.5t-34 -58.5 t-65.5 -37.5v-5q43 -8 65.5 -37.5t34 -68.5t12.5 -81t1 -77v-219q0 -59 8 -88t21.5 -38t29 -9t28.5 -3t21.5 -16.5t8.5 -52.5q0 -20 1 -41.5t-2 -39t-15.5 -29t-39.5 -11.5q-16 0 -29.5 1t-29.5 1q-57 0 -95 20.5t-60.5 54.5t-31 79t-8.5 96v293q0 16 -1 38t-5 43.5 t-13 39.5t-26 29q-12 8 -23.5 11t-20.5 7t-15 11.5t-6 25.5z" />
<glyph unicode="|" horiz-adv-x="348" d="M102 -264v1665q0 49 14.5 62.5t53.5 13.5h63q35 0 49.5 -14.5t14.5 -61.5v-1669q0 -45 -14.5 -57.5t-53.5 -12.5h-55q-43 0 -57.5 14.5t-14.5 59.5z" />
<glyph unicode="}" horiz-adv-x="485" d="M32 -72.5q1 21.5 1 41.5q0 39 8 52.5t21.5 16.5t28.5 3t28.5 9t22 38t8.5 88v219q0 35 1 77t12 81t33.5 68.5t65.5 37.5v5q-43 12 -65.5 37.5t-33.5 58.5t-12 70.5t-1 74.5v244q0 59 -8.5 88t-22 38t-28.5 9t-28.5 3t-21.5 16.5t-8 52.5v49q0 35 7 53.5t48 18.5h72 q59 0 95 -20.5t55.5 -55.5t25.5 -80t6 -94v-301q0 -37 6 -77t37 -67q10 -8 21.5 -13t21.5 -10t17.5 -13.5t7.5 -24.5v-123q0 -18 -6.5 -25.5t-15.5 -11.5t-20.5 -7t-23.5 -11q-16 -10 -25.5 -28.5t-13.5 -40t-5 -43t-1 -38.5v-293q0 -51 -8 -96t-30.5 -79t-59.5 -54.5 t-97 -20.5q-16 0 -29.5 -1t-29.5 -1q-27 0 -39 11.5t-15 29t-2 39z" />
<glyph unicode="~" horiz-adv-x="1335" d="M0 655v84q0 43 10 57.5t47 34.5q70 39 152 60.5t158 21.5q90 0 153.5 -18t122.5 -42t126 -42t165 -18q102 0 183 19t161 54q20 10 38.5 5t18.5 -40v-90q0 -43 -9 -60t-48 -34q-76 -31 -169 -48t-187 -17q-96 0 -163 19.5t-127.5 42t-124 42t-153.5 19.5q-80 0 -151.5 -26 t-145.5 -61q-20 -10 -38.5 -3.5t-18.5 40.5z" />
<glyph unicode="&#xa3;" horiz-adv-x="724" d="M16 717v92q0 41 10.5 56.5t34.5 15.5h80q10 0 12.5 5t6.5 17l30 236q16 117 59.5 172t121.5 55h235q35 0 49.5 -17.5t14.5 -64.5v-78q0 -47 -11.5 -64.5t-40.5 -17.5h-153q-20 0 -29.5 -12t-13.5 -43l-23 -151q-2 -16 -1 -26.5t18 -10.5h176q45 0 45 -74v-86 q0 -47 -12.5 -63.5t-46.5 -16.5h-181q-16 0 -20 -8t-8 -39l-37 -315q-6 -37 28 -37h267q37 0 51 -19.5t14 -70.5v-66q0 -49 -14 -67.5t-53 -18.5h-435q-35 0 -57 12.5t-34.5 33t-15.5 45t-3 50.5q2 18 2 40t2 42q2 23 4 45q2 23 8 68q4 39 14.5 103.5t24.5 164.5 q6 37 -12 37h-70q-23 0 -30 14.5t-7 61.5z" />
<glyph unicode="&#xa7;" horiz-adv-x="770" d="M10 735q0 137 35 210t111 97v2q0 176 59 249t184 73h260q47 0 59.5 -12.5t12.5 -55.5v-55q0 -41 -13 -52t-59 -11h-217q-41 0 -57 -22.5t-16 -106.5q0 -27 28.5 -51.5t72.5 -51t94 -57.5t94 -69t73 -86t29 -111q0 -139 -35 -210t-111 -93v-9q0 -174 -58 -244.5 t-185 -70.5h-260q-47 0 -59.5 12.5t-12.5 55.5v55q0 41 13.5 52t58.5 11h211q23 0 37 4.5t22 16.5t11 36.5t3 65.5q0 33 -28.5 59.5t-71.5 53t-92 56.5t-92 67t-72 84t-29 108zM221 741q0 -29 31 -54t76 -53t97 -58.5t95 -71.5q16 10 22.5 35.5t6.5 78.5q0 33 -30 60 t-75 54.5t-97 58t-95 67.5q-16 -10 -23.5 -35.5t-7.5 -81.5z" />
<glyph unicode="&#xa9;" horiz-adv-x="733" d="M20 1151q0 72 28 135.5t75 110.5t109.5 73.5t134.5 26.5t134 -26.5t109 -73.5t75 -110.5t28 -135.5t-28 -134.5t-75 -109.5t-109.5 -74.5t-133.5 -27.5q-72 0 -134.5 27.5t-109.5 74.5t-75 109.5t-28 134.5zM84 1151q0 -57 22.5 -109.5t60.5 -90.5t90 -60.5t110 -22.5 q59 0 110 22.5t89 60.5t60.5 90.5t22.5 109.5q0 59 -22.5 110.5t-60.5 89.5t-89 60.5t-110 22.5q-57 0 -109.5 -22.5t-90.5 -60.5t-60.5 -89.5t-22.5 -110.5zM225 1147q0 109 34 169t112 60q41 0 65.5 -17.5t37.5 -42t17.5 -51t4.5 -42.5h-68q-2 29 -13.5 58.5t-43.5 29.5 q-39 0 -56.5 -44t-17.5 -118q0 -72 16.5 -116t57.5 -44q39 0 50 39t13 76h68q0 -102 -40 -142t-93 -40q-70 0 -107 60t-37 165z" />
<glyph unicode="&#xab;" horiz-adv-x="432" d="M10 524v264q0 37 5 51.5t22 26.5l125 92q18 14 25.5 7t7.5 -25v-137q0 -23 -3.5 -35t-11.5 -23l-65 -94l59 -84q12 -18 16.5 -26.5t4.5 -26.5v-145q0 -23 -8.5 -24t-18.5 3l-125 90q-33 25 -33 86zM238 524v264q0 37 5 51.5t21 26.5l125 92q18 14 25.5 7t7.5 -25v-137 q0 -23 -4 -35t-10 -23l-66 -94l59 -84q12 -18 16.5 -26.5t4.5 -26.5v-145q0 -23 -8 -24t-19 3l-125 90q-33 25 -32 86z" />
<glyph unicode="&#xad;" horiz-adv-x="432" d="M20 672v102q0 51 12.5 67.5t53.5 16.5h260q41 0 53.5 -16.5t12.5 -67.5v-102q0 -51 -12.5 -67.5t-53.5 -16.5h-260q-41 0 -53.5 16.5t-12.5 67.5z" />
<glyph unicode="&#xae;" horiz-adv-x="733" d="M20 1151q0 72 28 135.5t75 110.5t109.5 73.5t134.5 26.5t134 -26.5t109 -73.5t75 -110.5t28 -135.5t-28 -134.5t-75 -109.5t-109.5 -74.5t-133.5 -27.5q-72 0 -134.5 27.5t-109.5 74.5t-75 109.5t-28 134.5zM84 1151q0 -57 22.5 -109.5t60.5 -90.5t90 -60.5t110 -22.5 q59 0 110 22.5t89 60.5t60.5 90.5t22.5 109.5q0 59 -22.5 110.5t-60.5 89.5t-89 60.5t-110 22.5q-57 0 -109.5 -22.5t-90.5 -60.5t-60.5 -89.5t-22.5 -110.5zM268 934v432h88q66 0 92.5 -29.5t26.5 -93.5q0 -88 -49 -117l57 -192h-67l-51 174h-33v-174h-64zM332 1180h16 q35 0 47.5 14t12.5 47q0 29 -11.5 40t-42.5 11h-22v-112z" />
<glyph unicode="&#xb0;" horiz-adv-x="772" d="M137 1229q0 55 21.5 105t58.5 87t87.5 58.5t105.5 21.5t105 -21.5t87 -58.5t58.5 -87t21.5 -105t-21.5 -105.5t-58.5 -87.5t-87 -58.5t-105 -21.5t-104.5 21.5t-86.5 58.5t-59.5 87.5t-22.5 105.5zM281 1229q2 -53 38.5 -91t92.5 -38q53 0 90 38t37 91t-38 91t-91 38 t-91 -38t-38 -91z" />
<glyph unicode="&#xb1;" horiz-adv-x="880" d="M14 78v92q0 47 13.5 64.5t50.5 17.5h725q37 0 50 -17.5t13 -64.5v-92q0 -51 -17.5 -64.5t-47.5 -13.5h-721q-31 0 -48.5 13.5t-17.5 64.5zM14 662v96q0 47 13.5 64.5t50.5 17.5h229v223q0 31 13.5 48t64.5 17h104q47 0 64.5 -13t17.5 -50v-225h232q37 0 50 -17.5 t13 -64.5v-96q0 -51 -17.5 -64.5t-47.5 -13.5h-230v-215q0 -37 -17 -50.5t-65 -13.5h-104q-51 0 -64.5 17.5t-13.5 48.5v213h-227q-31 0 -48.5 13t-17.5 65z" />
<glyph unicode="&#xb6;" horiz-adv-x="884" d="M33 1024q0 66 18.5 127t56 108.5t95 77t133.5 29.5h403q37 0 50.5 -12.5t13.5 -53.5v-110q0 -43 -15.5 -54.5t-46.5 -11.5v-1276q0 -29 -12 -40t-47 -11h-66q-37 0 -47 14.5t-10 36.5v1276h-106v-1276q0 -29 -11.5 -40t-46.5 -11h-67q-37 0 -46.5 14.5t-9.5 36.5v844 q-57 0 -102 29t-76 75t-46 106.5t-15 121.5z" />
<glyph unicode="&#xb7;" horiz-adv-x="286" d="M20 645v121q0 49 10.5 70.5t53.5 21.5h119q43 0 53 -21.5t10 -70.5v-121q0 -49 -10 -70.5t-53 -21.5h-119q-43 0 -53.5 21.5t-10.5 70.5z" />
<glyph unicode="&#xbb;" horiz-adv-x="432" d="M10 369v145q0 18 4 26.5t17 26.5l59 84l-65 94q-8 10 -11.5 22.5t-3.5 35.5v137q0 18 7.5 25.5t25.5 -7.5l125 -92q16 -12 21.5 -26.5t5.5 -51.5v-264q0 -61 -33 -86l-125 -90q-10 -4 -18.5 -3t-8.5 24zM238 369v145q0 18 3 26.5t17 26.5l59 84l-65 94q-8 10 -11 22.5 t-3 35.5v137q0 18 6 25.5t24 -7.5l127 -92q16 -12 21.5 -26.5t5.5 -51.5v-264q0 -61 -33 -86l-127 -90q-10 -4 -17 -3t-7 24z" />
<glyph unicode="&#xf7;" horiz-adv-x="880" d="M14 653v105q0 47 13.5 64.5t50.5 17.5h725q37 0 50 -17.5t13 -64.5v-105q0 -51 -17.5 -64.5t-47.5 -13.5h-721q-31 0 -48.5 13.5t-17.5 64.5zM307 360v62q0 53 10.5 76.5t57.5 23.5h125q47 0 57 -23.5t10 -76.5v-62q0 -53 -10 -76.5t-57 -23.5h-125q-47 0 -57.5 23.5 t-10.5 76.5zM307 993v62q0 53 10.5 75.5t57.5 22.5h125q47 0 57 -22.5t10 -75.5v-62q0 -53 -10 -76.5t-57 -23.5h-125q-47 0 -57.5 23.5t-10.5 76.5z" />
<glyph unicode="&#x192;" horiz-adv-x="595" d="M18 717v106q0 51 35 51h74q23 0 25 25l30 252q12 104 59.5 159.5t125.5 55.5h104q59 0 76.5 -20.5t17.5 -63.5v-72q0 -47 -11 -66.5t-40 -19.5h-49q-14 0 -23.5 -2t-13.5 -9t-7 -20.5t-7 -35.5l-25 -135q-4 -27 1 -33t18 -6h51q37 0 48 -15.5t11 -62.5v-82 q0 -47 -12 -63.5t-49 -16.5h-68q-16 0 -20 -6t-9 -29l-67 -532q-6 -49 -18.5 -62.5t-36.5 -13.5h-125q-35 0 -47.5 14.5t-4.5 81.5l62 510q4 23 1 31t-13 8h-58q-23 0 -29 14.5t-6 57.5z" />
<glyph unicode="&#x401;" horiz-adv-x="616" d="M53 90v1186q0 51 15.5 70.5t54.5 19.5h405q39 0 52.5 -15.5t13.5 -64.5v-76q0 -51 -13.5 -68.5t-52.5 -17.5h-200q-23 0 -30 -8t-7 -37v-190q0 -29 5 -36t32 -7h102q35 0 47 -14.5t12 -55.5v-104q0 -41 -13 -54.5t-46 -13.5h-102q-23 0 -30 -6t-7 -25v-286q0 -25 7 -35 t36 -10h203q41 0 57 -19.5t16 -68.5v-66q0 -47 -16 -67.5t-53 -20.5h-418q-41 0 -55.5 18.5t-14.5 71.5zM84 1481v78q0 35 12.5 49t50.5 14h60q39 0 51 -14.5t12 -48.5v-78q0 -35 -12 -49.5t-51 -14.5h-60q-39 0 -51 14.5t-12 49.5zM332 1481v78q0 35 12 49t51 14h60 q39 0 51 -14.5t12 -48.5v-78q0 -35 -12 -49.5t-51 -14.5h-60q-39 0 -51 14.5t-12 49.5z" />
<glyph unicode="&#x402;" horiz-adv-x="940" d="M6 1206v70q0 53 13.5 71.5t54.5 18.5h499q37 0 51.5 -17.5t14.5 -64.5v-76q0 -49 -13.5 -66.5t-50.5 -17.5h-108q-16 0 -21.5 -8t-5.5 -33v-182q0 -18 4.5 -30.5t26.5 -12.5h49q74 0 143.5 -9t125 -51t89 -129t33.5 -245q0 -74 -9 -149.5t-38.5 -137t-83 -99.5 t-139.5 -38h-49q-45 0 -58.5 15.5t-13.5 68.5v76q0 51 12.5 66.5t47.5 15.5q31 0 38 2q23 0 35.5 17.5t18.5 44t7 61t1 67.5q0 66 -14.5 101.5t-37 54t-53 22.5t-63.5 4h-33q-29 0 -34 -16t-5 -33v-481q0 -33 -7 -50.5t-17 -25.5t-20.5 -9t-18.5 -1h-109q-47 0 -57 26.5 t-10 63.5v993q0 29 -7.5 35t-19.5 6h-106q-37 0 -49.5 15.5t-12.5 66.5z" />
<glyph unicode="&#x403;" horiz-adv-x="587" d="M53 86v1186q0 57 13.5 75.5t54.5 18.5h389q41 0 56.5 -19.5t15.5 -68.5v-72q0 -47 -14.5 -64.5t-49.5 -17.5h-188q-25 0 -31 -10t-6 -45v-983q0 -49 -12.5 -67.5t-47.5 -18.5h-114q-39 0 -52.5 17.5t-13.5 68.5zM150 1436q0 14 10 26l92 121q16 23 23.5 28t21.5 5h180 q29 0 29 -27q0 -14 -21 -33l-141 -120q-12 -10 -19.5 -14.5t-25.5 -4.5h-127q-23 0 -22 19z" />
<glyph unicode="&#x404;" horiz-adv-x="593" d="M35 657q0 207 5 343.5t28.5 217t70.5 114.5t131 34h254q35 0 49.5 -15.5t14.5 -56.5v-92q0 -47 -13.5 -62.5t-54.5 -15.5h-155q-20 0 -40 -6t-28 -41q-6 -29 -9 -75t-7 -113q0 -29 5 -36t31 -7h125q35 0 47.5 -14.5t12.5 -55.5v-104q0 -41 -13.5 -54.5t-46.5 -13.5h-125 q-23 0 -29.5 -6.5t-6.5 -24.5q2 -109 4 -181.5t14 -106.5q10 -29 21.5 -36t39.5 -7h160q37 0 51.5 -15.5t14.5 -54.5v-98q0 -41 -13.5 -57.5t-48.5 -16.5h-243q-78 0 -126.5 26.5t-75 98.5t-35.5 201t-9 331z" />
<glyph unicode="&#x405;" horiz-adv-x="618" d="M10 1118q0 139 63.5 193.5t190.5 54.5h234q31 0 44 -16.5t13 -57.5v-90q0 -43 -14.5 -60.5t-48.5 -17.5h-183q-51 0 -60 -37.5t15 -82.5l219 -404q41 -76 65.5 -130t38 -97t17.5 -79t4 -75q0 -123 -60.5 -171t-158.5 -48h-305q-41 0 -54.5 16.5t-13.5 67.5v72 q0 53 12.5 69.5t53.5 16.5h211q45 0 52 33.5t-9 66.5l-232 436q-33 63 -52 113.5t-28.5 91.5t-11.5 74t-2 61z" />
<glyph unicode="&#x406;" horiz-adv-x="348" d="M53 90v1184q0 53 14.5 72.5t53.5 19.5h110q35 0 49.5 -19.5t14.5 -72.5v-1188q0 -55 -14.5 -70.5t-53.5 -15.5h-102q-43 0 -57.5 17.5t-14.5 72.5z" />
<glyph unicode="&#x407;" horiz-adv-x="348" d="M-41 1481v78q0 35 12.5 49t51.5 14h59q39 0 51 -14.5t12 -48.5v-78q0 -35 -12 -49.5t-51 -14.5h-59q-39 0 -51.5 14.5t-12.5 49.5zM53 90v1184q0 53 14.5 72.5t53.5 19.5h110q35 0 49.5 -19.5t14.5 -72.5v-1188q0 -55 -14.5 -70.5t-53.5 -15.5h-102q-43 0 -57.5 17.5 t-14.5 72.5zM207 1481v78q0 35 12 49t51 14h60q39 0 51 -14.5t12 -48.5v-78q0 -35 -12 -49.5t-51 -14.5h-60q-39 0 -51 14.5t-12 49.5z" />
<glyph unicode="&#x408;" horiz-adv-x="471" d="M6 84v76q0 53 14.5 67.5t51.5 14.5h53q35 0 50 16t15 74v948q0 53 13.5 69.5t56.5 16.5h102q43 0 56.5 -16.5t13.5 -67.5v-932q0 -72 -10 -130t-37 -107q-33 -59 -81 -86t-126 -27h-100q-45 0 -58.5 15.5t-13.5 68.5z" />
<glyph unicode="&#x409;" horiz-adv-x="1220" d="M6 51v142q0 10 5 29.5t34 19.5h18q31 0 53.5 41t38 109.5t24.5 156.5t14.5 182t7.5 185.5t2 166.5q0 78 -1 131.5t-1 63.5q0 33 7 51.5t18.5 26.5t22.5 9t19 1h453q41 0 55.5 -19.5t14.5 -68.5v-420h172q113 0 171 -107.5t58 -314.5q0 -217 -66.5 -326.5t-195.5 -109.5 h-316q-25 0 -44 11.5t-19 72.5v1003q0 14 -4 25.5t-27 11.5h-51q-23 0 -30 -8t-7 -37l-4 -284q-4 -150 -14.5 -256.5t-24.5 -181t-30.5 -124t-30.5 -83.5q-12 -27 -29.5 -55.5t-43.5 -50t-63.5 -36t-89.5 -14.5h-43q-37 0 -45 20.5t-8 36.5zM791 279q0 -25 8 -31t24 -6h60 q18 0 30.5 7t20.5 27.5t12 58.5t4 99t-4 97t-11 54.5t-18.5 24.5t-27.5 6h-68q-31 0 -30 -34v-303z" />
<glyph unicode="&#x40a;" horiz-adv-x="1153" d="M53 90v1188q0 49 15.5 68.5t52.5 19.5h110q35 0 48.5 -20.5t13.5 -65.5v-383q0 -25 7 -32t24 -7h127q16 0 23 7t7 32v383q0 45 13.5 65.5t48.5 20.5h110q41 0 55.5 -19.5t14.5 -68.5v-420h172q113 0 171 -107.5t58 -314.5q0 -217 -66.5 -326.5t-195.5 -109.5h-317 q-41 0 -52.5 21.5t-11.5 66.5v485q0 25 -6 34t-26 9h-123q-20 0 -26.5 -9t-6.5 -34v-485q0 -45 -11.5 -66.5t-52.5 -21.5h-108q-39 0 -53.5 18.5t-14.5 71.5zM723 279q0 -25 8 -31t25 -6h59q18 0 30.5 7t20.5 27.5t12.5 58.5t4.5 99t-4.5 97t-11.5 54.5t-18 24.5t-28 6h-67 q-31 0 -31 -34v-303z" />
<glyph unicode="&#x40b;" horiz-adv-x="892" d="M6 1206v70q0 53 13.5 71.5t54.5 18.5h499q37 0 51.5 -17.5t14.5 -64.5v-76q0 -49 -13.5 -66.5t-50.5 -17.5h-108q-16 0 -21.5 -8t-5.5 -33v-182q0 -14 2 -28.5t29 -14.5h49q74 0 134.5 -2t103.5 -31.5t66.5 -97.5t23.5 -197v-440q0 -35 -7 -53.5t-18.5 -25.5t-23 -8 t-19.5 -1h-110q-43 0 -52.5 29.5t-9.5 56.5v432q0 35 -7 54.5t-19.5 28.5t-28.5 11t-37 2h-37q-31 0 -35 -17t-4 -34v-477q0 -33 -7 -51.5t-18.5 -25.5t-22.5 -8t-17 -1h-107q-47 0 -57 26.5t-10 63.5v991q0 29 -7.5 35t-19.5 6h-106q-37 0 -49.5 15.5t-12.5 66.5z" />
<glyph unicode="&#x40c;" horiz-adv-x="768" d="M37 92v1184q0 35 6 52.5t15.5 26.5t22.5 10t25 1h101q16 0 28.5 -1t21.5 -9t14 -26.5t5 -53.5v-307q0 -8 1.5 -15.5t11.5 -7.5q8 0 18 23l154 323q10 23 17 37t15.5 22.5t17.5 11.5t26 3h182q16 0 22.5 -7t1.5 -18l-6 -24l-202 -393q-4 -8 -8.5 -16.5t-4.5 -22.5v-17.5 t4 -17.5l209 -789q2 -10 5 -20t1 -19.5t-10 -15.5t-29 -6h-167q-35 0 -44.5 19.5t-13.5 39.5l-104 490q-2 10 -6.5 26.5t-14.5 16.5q-8 0 -15 -12.5t-11 -22.5l-33 -70q-4 -6 -10.5 -25.5t-6.5 -41.5v-336q0 -53 -11 -68.5t-50 -15.5h-106q-39 0 -55.5 12.5t-16.5 79.5z M248 1436q0 14 10 26l92 121q16 23 23.5 28t21.5 5h180q29 0 29 -27q0 -14 -20 -33l-142 -120q-12 -10 -19 -14.5t-26 -4.5h-127q-23 0 -22 19z" />
<glyph unicode="&#x40e;" horiz-adv-x="745" d="M6 1311q-10 39 6.5 47t30.5 8h164q35 0 41 -15.5t14 -50.5l107 -581q4 -16 5 -23.5t11 -7.5q16 0 18 31l97 581q4 25 11 45.5t42 20.5h152q31 0 34.5 -14.5t-0.5 -40.5l-209 -1030q-10 -61 -34.5 -113.5t-60.5 -90.5t-84 -60.5t-107 -22.5h-103q-31 0 -48 7t-25.5 19.5 t-10.5 29t-2 34.5v80q0 6 3 19.5t10.5 25.5t20.5 22.5t34 10.5h35q35 0 60.5 25.5t6.5 97.5zM111 1618q0 27 22 27h55q20 0 27 -27q4 -12 12.5 -22.5t24.5 -16.5t45 -9t74 -3q88 0 118.5 12t34.5 39q10 27 25 27h57q23 0 23 -27q0 -33 -12.5 -67.5t-42 -64.5t-79 -48.5 t-124.5 -18.5q-76 0 -126 18.5t-80 48.5t-42 64.5t-12 67.5z" />
<glyph unicode="&#x40f;" horiz-adv-x="774" d="M53 88v1188q0 53 14.5 71.5t53.5 18.5h108q41 0 52.5 -21.5t11.5 -66.5v-991q0 -25 6 -36t27 -11h123q20 0 26 9t6 34v995q0 45 11.5 66.5t52.5 21.5h108q39 0 53.5 -18.5t14.5 -71.5v-1188q0 -49 -15.5 -68.5t-52.5 -19.5h-141q-16 0 -24.5 -9t-8.5 -22v-162 q0 -14 -1 -26t-8 -22.5t-21.5 -16.5t-40.5 -6h-89q-51 0 -61 21.5t-10 49.5v162q0 12 -8.5 21.5t-24.5 9.5h-94q-37 0 -52.5 19.5t-15.5 68.5z" />
<glyph unicode="&#x410;" horiz-adv-x="759" d="M6 31l166 1257q6 45 24.5 61.5t61.5 16.5h238q37 0 55 -17.5t24 -62.5l179 -1255q4 -31 -31 -31h-195q-16 0 -23 7t-11 30l-39 289q-4 20 -11.5 26t-23.5 6h-86q-16 0 -23.5 -5t-11.5 -27l-33 -293q-2 -20 -8 -26.5t-29 -6.5h-188q-37 0 -35 31zM324 623q-4 -23 26 -23 h51q33 0 29 23l-39 471q-2 31 -16 30q-14 0 -17 -32z" />
<glyph unicode="&#x411;" horiz-adv-x="724" d="M53 94v1178q0 57 13.5 75.5t54.5 18.5h440q41 0 56.5 -19.5t15.5 -68.5v-72q0 -47 -14.5 -64.5t-49.5 -17.5h-239q-25 0 -31 -10t-6 -45l2 -211h172q113 0 171 -107.5t58 -314.5q0 -217 -66.5 -326.5t-195.5 -109.5h-315q-37 0 -51.5 20.5t-14.5 73.5zM295 279 q0 -25 8 -31t25 -6h59q18 0 30.5 7t20.5 27.5t12.5 58.5t4.5 99t-4.5 97t-11.5 54.5t-18 24.5t-28 6h-67q-31 0 -31 -34v-303z" />
<glyph unicode="&#x412;" horiz-adv-x="739" d="M53 90v1188q0 49 14.5 68.5t51.5 19.5h370q66 0 106 -26.5t61.5 -72.5t28.5 -109.5t7 -135.5q0 -129 -25.5 -201.5t-84.5 -107.5q63 -25 96 -113t33 -231q0 -80 -10.5 -147.5t-35 -117t-67.5 -77t-109 -27.5h-370q-39 0 -52.5 18.5t-13.5 71.5zM293 283q0 -23 6 -32 t29 -9h39q61 0 80.5 35t19.5 135q0 55 -6 89t-18.5 53t-32 25.5t-43.5 6.5h-39q-23 0 -29 -8.5t-6 -32.5v-262zM293 868q0 -23 6 -32t29 -9h39q55 0 70.5 32t15.5 116q0 49 -6.5 77.5t-17.5 45t-26.5 21.5t-35.5 5h-39q-23 0 -29 -8t-6 -33v-215z" />
<glyph unicode="&#x413;" horiz-adv-x="587" d="M53 86v1186q0 57 13.5 75.5t54.5 18.5h389q41 0 56.5 -19.5t15.5 -68.5v-72q0 -47 -14.5 -64.5t-49.5 -17.5h-188q-25 0 -31 -10t-6 -45v-983q0 -49 -12.5 -67.5t-47.5 -18.5h-114q-39 0 -52.5 17.5t-13.5 68.5z" />
<glyph unicode="&#x414;" horiz-adv-x="929" d="M6 170q0 51 17.5 61.5t44.5 10.5h14q14 0 41 78.5t47 224.5q16 109 29.5 256t23.5 358l6 148q2 47 23.5 53t48.5 6h430q27 0 41 -6t21.5 -16.5t8.5 -22.5t1 -27v-1024q0 -18 3 -23t21 -5h25q27 0 41 -6.5t21.5 -16.5t8.5 -22.5t1 -26.5v-363q0 -27 -6.5 -41t-16.5 -21 t-22.5 -8t-26.5 -1h-88q-51 0 -61.5 21.5t-10.5 49.5v162q0 12 -8 21.5t-25 9.5h-385q-29 0 -32.5 -15.5t-3.5 -23.5v-154q0 -27 -6.5 -41t-16.5 -21t-22.5 -8t-26.5 -1h-88q-51 0 -61.5 21.5t-10.5 49.5v363zM369 256q4 -14 28 -14h138q8 0 18 3t10 25v828q0 6 -4 15t-20 9 h-64q-8 0 -17 -5t-12 -30l-6 -108q-2 -45 -5 -100.5t-6 -113.5t-8 -115.5t-11 -108.5q-10 -90 -22.5 -166t-18.5 -103q-4 -10 0 -16z" />
<glyph unicode="&#x415;" horiz-adv-x="616" d="M53 90v1186q0 51 15.5 70.5t54.5 19.5h405q39 0 52.5 -15.5t13.5 -64.5v-76q0 -51 -13.5 -68.5t-52.5 -17.5h-200q-23 0 -30 -8t-7 -37v-190q0 -29 5 -36t32 -7h102q35 0 47 -14.5t12 -55.5v-104q0 -41 -13 -54.5t-46 -13.5h-102q-23 0 -30 -6t-7 -25v-286q0 -25 7 -35 t36 -10h203q41 0 57 -19.5t16 -68.5v-66q0 -47 -16 -67.5t-53 -20.5h-418q-41 0 -55.5 18.5t-14.5 71.5z" />
<glyph unicode="&#x416;" horiz-adv-x="1144" d="M6 29q0 12 8 32l207 727l-170 472q-8 23 -14 38t-6 31q0 23 15 30t38 7h133q23 0 43.5 -8t32.5 -49l125 -410q4 -16 10 -20.5t10 -4.5q14 0 15 37v367q0 33 7 51.5t17 26.5t21.5 9t19.5 1h113q43 0 52 -29.5t9 -56.5v-369q0 -37 15 -37q4 0 10 4.5t10 20.5l125 410 q12 41 32.5 49t43.5 8h133q23 0 38 -7t15 -30q0 -16 -6 -31.5t-14 -37.5l-170 -472l206 -727q8 -20 9 -32q0 -29 -41 -29h-168q-35 0 -43 19.5t-15 39.5l-139 514q-2 6 -7 14.5t-15 8.5q-12 0 -15.5 -8t-3.5 -19v-487q0 -14 -1 -28.5t-7 -27t-19.5 -19.5t-35.5 -7h-109 q-12 0 -24.5 1t-21.5 10t-15 27.5t-6 51.5v479q0 10 -3.5 18.5t-15.5 8.5q-10 0 -15 -8t-7 -15l-140 -514q-4 -20 -13 -39.5t-44 -19.5h-168q-41 0 -41 29z" />
<glyph unicode="&#x417;" horiz-adv-x="587" d="M6 84v70q0 33 5 51t14.5 26.5t21.5 9.5t27 1h162q49 0 63 49t14 139t-13 131t-52 41h-98q-39 0 -50.5 15.5t-11.5 70.5v72q0 55 11.5 70.5t50.5 15.5h98q20 0 40.5 27.5t20.5 111.5q0 74 -21.5 106.5t-51.5 32.5h-146q-14 0 -26.5 1t-21.5 9.5t-14 27t-5 50.5v70 q0 59 16 71.5t51 12.5h229q29 0 74 -7t82 -38q27 -23 41 -55.5t21.5 -70.5t9.5 -76t2 -70q0 -49 -3 -97.5t-15.5 -89.5t-37 -76.5t-67.5 -60.5q25 -14 48.5 -32.5t42 -53.5t30.5 -93.5t12 -152.5q0 -76 -6 -129t-15.5 -91t-21.5 -61.5t-27 -39.5q-45 -51 -97 -61.5 t-91 -10.5h-227q-35 0 -51.5 12.5t-16.5 71.5z" />
<glyph unicode="&#x418;" horiz-adv-x="800" d="M53 92v1182q0 59 19.5 75.5t54.5 16.5h106q37 0 50.5 -21.5t13.5 -68.5v-471q0 -23 2 -31t8 -8t11.5 5t11.5 24l172 508q16 43 29.5 53t50.5 10h94q43 0 57.5 -18.5t14.5 -71.5v-1184q0 -59 -19.5 -75.5t-54.5 -16.5h-107q-37 0 -50 21.5t-13 68.5v473q0 23 -2 31t-8 8 t-11.5 -5t-11.5 -24l-172 -510q-14 -43 -28.5 -53t-51.5 -10h-94q-43 0 -57.5 19.5t-14.5 72.5z" />
<glyph unicode="&#x419;" horiz-adv-x="800" d="M53 92v1182q0 59 19.5 75.5t54.5 16.5h106q37 0 50.5 -21.5t13.5 -68.5v-471q0 -23 2 -31t8 -8t11.5 5t11.5 24l172 508q16 43 29.5 53t50.5 10h94q43 0 57.5 -18.5t14.5 -71.5v-1184q0 -59 -19.5 -75.5t-54.5 -16.5h-107q-37 0 -50 21.5t-13 68.5v473q0 23 -2 31t-8 8 t-11.5 -5t-11.5 -24l-172 -510q-14 -43 -28.5 -53t-51.5 -10h-94q-43 0 -57.5 19.5t-14.5 72.5zM139 1618q0 27 23 27h55q20 0 27 -27q4 -12 12 -22.5t24.5 -16.5t45 -9t73.5 -3q88 0 119 12t35 39q10 27 25 27h57q22 0 22 -27q0 -33 -12 -67.5t-42 -64.5t-79 -48.5 t-125 -18.5t-126 18.5t-79.5 48.5t-42 64.5t-12.5 67.5z" />
<glyph unicode="&#x41a;" horiz-adv-x="768" d="M53 90v1184q0 53 14.5 72.5t53.5 19.5h110q35 0 49.5 -19.5t14.5 -72.5v-305q0 -20 8 -23q10 -2 23 23l151 319q20 43 32.5 60.5t45.5 17.5h182q25 0 25 -25q0 -12 -6 -24l-203 -393q-10 -18 -12 -39q-2 -12 0 -21.5t6 -21.5l207 -781q10 -41 2 -51t-35 -10h-168 q-27 0 -38 12.5t-19 46.5l-97 455q-6 29 -10 46.5t-14 17.5q-6 0 -10.5 -2.5t-10.5 -9.5t-15 -24.5t-26 -47.5q-12 -23 -15 -50.5t-3 -64.5v-293q0 -55 -14.5 -70.5t-53.5 -15.5h-102q-43 0 -57.5 17.5t-14.5 72.5z" />
<glyph unicode="&#x41b;" horiz-adv-x="841" d="M6 51v142q0 10 5 29.5t34 19.5h18q31 0 53.5 41t38 109.5t24.5 156.5t14.5 182t7.5 185.5t2 166.5q0 78 -1 131.5t-1 63.5q0 33 7 51.5t18.5 26.5t22.5 9t19 1h453q47 0 57 -26.5t10 -63.5v-1192q0 -61 -16 -72.5t-43 -11.5h-115q-25 0 -44 11.5t-19 72.5v1003 q0 14 -4 25.5t-27 11.5h-51q-23 0 -30 -8t-7 -37l-4 -284q-4 -150 -14.5 -256.5t-24.5 -181t-30.5 -124t-30.5 -83.5q-12 -27 -29.5 -55.5t-43.5 -50t-63.5 -36t-89.5 -14.5h-43q-37 0 -45 20.5t-8 36.5z" />
<glyph unicode="&#x41c;" horiz-adv-x="954" d="M53 88v1194q0 51 12.5 67.5t53.5 16.5h112q49 0 64.5 -10t28.5 -53l137 -492q6 -18 16 -18t17 18l137 492q12 43 27.5 53t64.5 10h113q41 0 53 -16.5t12 -67.5v-1194q0 -55 -12 -71.5t-55 -16.5h-109q-41 0 -53.5 18.5t-12.5 67.5v555v31.5t-8 17.5q-6 0 -10 -14t-8 -31 l-82 -405q-8 -39 -24.5 -50.5t-49.5 -11.5t-49 11.5t-25 50.5l-81 405q-4 16 -8.5 30.5t-10.5 14.5q-8 0 -8 -17.5v-31.5v-555q0 -49 -12.5 -67.5t-53.5 -18.5h-108q-43 0 -55.5 16.5t-12.5 71.5z" />
<glyph unicode="&#x41d;" horiz-adv-x="774" d="M53 90v1188q0 49 15.5 68.5t52.5 19.5h110q35 0 48.5 -20.5t13.5 -65.5v-395q0 -25 7 -32t24 -7h127q16 0 23 7t7 32v395q0 45 13.5 65.5t48.5 20.5h110q37 0 52.5 -19.5t15.5 -68.5v-1188q0 -53 -14.5 -71.5t-53.5 -18.5h-108q-41 0 -52.5 21.5t-11.5 66.5v473 q0 25 -6 34t-26 9h-123q-20 0 -26.5 -9t-6.5 -34v-473q0 -45 -11.5 -66.5t-52.5 -21.5h-108q-39 0 -53.5 18.5t-14.5 71.5z" />
<glyph unicode="&#x41e;" d="M35 686q0 154 5 281t35.5 219t97.5 143t192 51q123 0 190.5 -51t98 -143t35.5 -219t5 -281t-5 -283t-35.5 -222t-98.5 -146t-190 -53q-125 0 -192 53t-97.5 146t-35.5 222t-5 283zM274 686q0 -135 2.5 -221t10.5 -136t26.5 -68.5t51.5 -18.5t51 18.5t26.5 68.5t10.5 136 t2 221t-2 220t-10.5 133t-27 65.5t-50.5 17.5q-33 0 -51.5 -17.5t-26.5 -65.5t-10.5 -133t-2.5 -220z" />
<glyph unicode="&#x41f;" horiz-adv-x="774" d="M53 90v1188q0 49 15.5 68.5t52.5 19.5h532q37 0 52.5 -19.5t15.5 -68.5v-1188q0 -53 -14.5 -71.5t-53.5 -18.5h-108q-41 0 -52.5 21.5t-11.5 66.5v995q0 25 -6 34t-26 9h-123q-20 0 -26.5 -11t-6.5 -36v-991q0 -45 -11.5 -66.5t-52.5 -21.5h-108q-39 0 -53.5 18.5 t-14.5 71.5z" />
<glyph unicode="&#x420;" horiz-adv-x="710" d="M53 88v1184q0 53 14.5 73.5t51.5 20.5h315q129 0 195.5 -109.5t66.5 -326.5q0 -207 -58 -314.5t-171 -107.5h-172v-420q0 -53 -12.5 -70.5t-53.5 -17.5h-110q-41 0 -53.5 16.5t-12.5 71.5zM295 784q0 -35 31 -34h67q16 0 27.5 6t18.5 24.5t11.5 54.5t4.5 97t-4.5 99 t-12.5 58.5t-20 27.5t-31 7h-59q-16 0 -24.5 -6t-8.5 -31v-303z" />
<glyph unicode="&#x421;" horiz-adv-x="593" d="M35 657q0 207 5 343.5t28.5 217t70.5 114.5t131 34h254q35 0 49.5 -15.5t14.5 -56.5v-92q0 -47 -13.5 -62.5t-54.5 -15.5h-155q-29 0 -46.5 -8t-25.5 -51t-10 -133t-2 -252q0 -160 3 -248t11 -131t23.5 -51t41.5 -8h160q37 0 51.5 -15.5t14.5 -54.5v-98 q0 -41 -13.5 -57.5t-48.5 -16.5h-243q-78 0 -126.5 26.5t-75 98.5t-35.5 201t-9 331z" />
<glyph unicode="&#x422;" horiz-adv-x="645" d="M6 1206v70q0 53 13.5 71.5t54.5 18.5h499q37 0 51.5 -17.5t14.5 -64.5v-76q0 -49 -13.5 -66.5t-50.5 -17.5h-106q-16 0 -21.5 -8t-5.5 -33v-993q0 -53 -12 -71.5t-53 -18.5h-107q-41 0 -55 17.5t-14 66.5v999q0 29 -7.5 35t-19.5 6h-106q-37 0 -49.5 15.5t-12.5 66.5z " />
<glyph unicode="&#x423;" horiz-adv-x="745" d="M6 1311q-10 39 6.5 47t30.5 8h164q35 0 41 -15.5t14 -50.5l107 -581q4 -16 5 -23.5t11 -7.5q16 0 18 31l97 581q4 25 11 45.5t42 20.5h152q31 0 34.5 -14.5t-0.5 -40.5l-209 -1030q-10 -61 -34.5 -113.5t-60.5 -90.5t-84 -60.5t-107 -22.5h-103q-31 0 -48 7t-25.5 19.5 t-10.5 29t-2 34.5v80q0 6 3 19.5t10.5 25.5t20.5 22.5t34 10.5h35q35 0 60.5 25.5t6.5 97.5z" />
<glyph unicode="&#x424;" horiz-adv-x="1093" d="M25 694q0 109 15 198t53 154.5t103.5 103.5t165.5 40l64 2v115q0 45 13.5 65.5t47.5 20.5h119q35 0 48.5 -20.5t13.5 -65.5v-115l65 -2q184 -6 260 -125t76 -371q0 -102 -13.5 -191t-50 -155.5t-101 -104.5t-169.5 -38h-67v-115q0 -53 -12.5 -71.5t-53.5 -18.5h-106 q-41 0 -55.5 17.5t-14.5 66.5v121h-66q-106 0 -172.5 38t-102.5 104.5t-48 155.5t-12 191zM265 613q-1 -44 6.5 -80.5t29 -61.5t64.5 -25h30q31 0 31 35v430q0 25 -8 31t-25 6h-31q-43 0 -62 -25.5t-27.5 -63.5t-7.5 -82t1 -81q0 -39 -1 -83zM668 481q0 -35 30 -35h33 q43 0 63.5 25t27.5 62.5t6 81.5t-1 81t1 81t-7 82t-27.5 63.5t-62.5 25.5h-31q-16 0 -24 -6t-8 -31v-430z" />
<glyph unicode="&#x425;" horiz-adv-x="700" d="M7 17.5q-7 17.5 3 58.5l135 633l-135 583q-10 41 1.5 57.5t39.5 16.5h156q41 0 53 -55l74 -385q4 -16 6 -21.5t10 -5.5t10 5t7 22l73 385q12 55 54 55h155q29 0 40 -16.5t1 -57.5l-137 -583l137 -633q10 -41 3 -58.5t-36 -17.5h-159q-47 0 -56 51l-73 424q-6 25 -19 25 q-12 0 -18 -25l-74 -424q-8 -51 -55 -51h-160q-29 0 -36 17.5z" />
<glyph unicode="&#x426;" horiz-adv-x="847" d="M53 88v1188q0 35 6.5 52.5t15.5 26.5t21.5 10t24.5 1h108q25 0 38.5 -8t18.5 -21.5t6 -29t1 -29.5v-981q0 -12 5 -33.5t32 -21.5h114q27 0 32 20.5t5 34.5v985q0 61 19.5 72.5t44.5 11.5h117q27 0 43 -11.5t16 -72.5v-995q0 -18 7 -31.5t26 -13.5h16q27 0 41 -6.5 t21.5 -16.5t8.5 -22.5t1 -26.5v-363q0 -27 -6.5 -41t-16.5 -21t-22.5 -8t-26.5 -1h-88q-51 0 -61.5 21.5t-10.5 49.5v162q0 12 -8 21.5t-24 9.5h-457q-8 0 -19.5 1t-21.5 8t-18.5 25.5t-8.5 53.5z" />
<glyph unicode="&#x427;" horiz-adv-x="745" d="M45 838v440q0 35 8 53.5t18.5 25.5t21.5 8t20 1h110q43 0 52.5 -29.5t9.5 -56.5v-432q0 -35 7 -54.5t19.5 -28.5t28.5 -11t37 -2h37q31 0 35 17t4 34v477q0 35 7 52.5t18 24.5t22.5 8t17.5 1h107q47 0 57 -26.5t10 -63.5v-1192q0 -61 -16.5 -72.5t-42.5 -11.5h-117 q-25 0 -44 11.5t-19 72.5v383q0 14 -2 28.5t-29 14.5h-49q-74 0 -134.5 2t-103.5 31.5t-66.5 97.5t-23.5 197z" />
<glyph unicode="&#x428;" horiz-adv-x="1140" d="M53 88v1188q0 35 6.5 52.5t15.5 26.5t21.5 10t24.5 1h108q25 0 38.5 -8t18.5 -21.5t6 -29t1 -29.5v-993q0 -12 3 -27.5t30 -15.5h94q27 0 29 14t2 29v997q0 61 19 72.5t44 11.5h117q27 0 43 -11.5t16 -72.5v-997q0 -12 3 -27.5t30 -15.5h94q27 0 29 14t2 29v997 q0 61 19.5 72.5t43.5 11.5h117q27 0 43 -11.5t16 -72.5v-1192q0 -37 -10 -63.5t-57 -26.5h-899q-8 0 -19.5 1t-21.5 8t-18.5 25.5t-8.5 53.5z" />
<glyph unicode="&#x429;" horiz-adv-x="1214" d="M53 88v1188q0 35 6.5 52.5t15.5 26.5t21.5 10t24.5 1h108q25 0 38.5 -8t18.5 -21.5t6 -29t1 -29.5v-993q0 -12 3 -27.5t30 -15.5h94q27 0 29 14t2 29v997q0 61 19 72.5t44 11.5h117q27 0 43 -11.5t16 -72.5v-997q0 -12 3 -27.5t30 -15.5h94q27 0 29 14t2 29v997 q0 61 19.5 72.5t43.5 11.5h117q27 0 43 -11.5t16 -72.5v-1012q0 -18 3.5 -23t21.5 -5h25q14 0 26.5 -1t22.5 -8.5t16 -21.5t6 -41v-363q0 -27 -6 -41t-16 -21t-22.5 -8t-26.5 -1h-88q-51 0 -61.5 21.5t-10.5 49.5v162q0 12 -8 21.5t-25 9.5h-823q-8 0 -19.5 1t-21.5 8 t-18.5 25.5t-8.5 53.5z" />
<glyph unicode="&#x42a;" horiz-adv-x="872" d="M6 1206v70q0 53 13.5 71.5t54.5 18.5h297q39 0 55 -19.5t16 -68.5v-420h172q113 0 171.5 -107.5t58.5 -314.5q0 -217 -66.5 -326.5t-195.5 -109.5h-316q-37 0 -51 20.5t-14 73.5v989q0 29 -7.5 35t-19.5 6h-106q-37 0 -49.5 15.5t-12.5 66.5zM442 279q0 -25 8.5 -31 t24.5 -6h60q18 0 30.5 7t20.5 27.5t12 58.5t4 99t-4 97t-11 54.5t-18.5 24.5t-27.5 6h-68q-31 0 -31 -34v-303z" />
<glyph unicode="&#x42b;" horiz-adv-x="1073" d="M53 94v1178q0 57 13.5 75.5t54.5 18.5h102q41 0 56.5 -19.5t15.5 -68.5v-420h172q113 0 171 -107.5t58 -314.5q0 -217 -66.5 -326.5t-195.5 -109.5h-315q-37 0 -51.5 20.5t-14.5 73.5zM295 279q0 -25 8 -31t25 -6h59q18 0 30.5 7t20.5 27.5t12.5 58.5t4.5 99t-4.5 97 t-11.5 54.5t-18 24.5t-28 6h-67q-31 0 -31 -34v-303zM778 90q0 -55 14.5 -72.5t57.5 -17.5h102q39 0 53.5 15.5t14.5 70.5v1188q0 53 -14.5 72.5t-49.5 19.5h-110q-39 0 -53.5 -19.5t-14.5 -72.5v-1184z" />
<glyph unicode="&#x42c;" horiz-adv-x="724" d="M53 94v1178q0 57 13.5 75.5t54.5 18.5h102q41 0 56.5 -19.5t15.5 -68.5v-420h172q113 0 171 -107.5t58 -314.5q0 -217 -66.5 -326.5t-195.5 -109.5h-315q-37 0 -51.5 20.5t-14.5 73.5zM295 279q0 -25 8 -31t25 -6h59q18 0 30.5 7t20.5 27.5t12.5 58.5t4.5 99t-4.5 97 t-11.5 54.5t-18 24.5t-28 6h-67q-31 0 -31 -34v-303z" />
<glyph unicode="&#x42d;" horiz-adv-x="593" d="M6 1202v92q0 41 14.5 56.5t49.5 15.5h254q84 0 131 -34t70.5 -114.5t28.5 -217t5 -343.5q0 -203 -9 -331.5t-36 -200.5t-75 -98.5t-126 -26.5h-243q-35 0 -48.5 16.5t-13.5 57.5v98q0 39 14.5 54.5t51.5 15.5h159q29 0 40.5 7t21.5 36q12 35 14 107t4 181q0 18 -7 24.5 t-30 6.5h-124q-33 0 -46.5 13.5t-13.5 54.5v104q0 41 12.5 55.5t47.5 14.5h124q27 0 32 7t5 36q-4 68 -7 114t-9 74q-8 35 -27.5 41t-40.5 6h-155q-41 0 -54.5 15.5t-13.5 62.5z" />
<glyph unicode="&#x42e;" horiz-adv-x="1110" d="M53 90v1188q0 35 8.5 53.5t18.5 25.5t21.5 8t19.5 1h110q43 0 52.5 -29.5t9.5 -56.5v-395q0 -29 12 -34t19 -5h59q27 0 30 16.5t3 28.5q4 109 16 198t47 154.5t98.5 101t167.5 35.5q123 0 191 -51t98.5 -143t35.5 -219t5 -281t-5 -283t-35.5 -222t-98.5 -146t-191 -53 q-113 0 -178 42t-98 118.5t-42 184t-11 238.5q0 10 -5 24.5t-26 14.5h-59q-27 0 -30 -15.5t-3 -27.5v-473q0 -14 -1 -29.5t-6 -29t-18.5 -21.5t-38.5 -8h-108q-12 0 -24.5 1t-21.5 10t-15.5 27.5t-6.5 51.5zM655 686q0 -135 2 -221t10.5 -136t27 -68.5t50.5 -18.5 q33 0 51.5 18.5t26.5 68.5t10.5 136t2.5 221t-2.5 220t-10.5 133t-26.5 65.5t-51.5 17.5t-51 -17.5t-26.5 -65.5t-10.5 -133t-2 -220z" />
<glyph unicode="&#x42f;" horiz-adv-x="718" d="M10 29q0 6 4 26l119 582q-59 51 -84.5 120.5t-25.5 186.5q0 422 280 422h293q41 0 55.5 -19.5t14.5 -72.5v-1186q0 -53 -13.5 -70.5t-52.5 -17.5h-111q-37 0 -52 19.5t-15 66.5v465q0 16 -6 17t-17 1h-28q-10 0 -15.5 -2t-9.5 -16l-84 -492q-6 -37 -16 -48t-39 -11h-160 q-37 0 -37 29zM260 975q0 -88 18.5 -126t55.5 -38h67q20 0 21 37v248q0 29 -27 28h-65q-33 0 -51.5 -30.5t-18.5 -118.5z" />
<glyph unicode="&#x430;" horiz-adv-x="759" d="M6 31l166 1257q6 45 24.5 61.5t61.5 16.5h238q37 0 55 -17.5t24 -62.5l179 -1255q4 -31 -31 -31h-195q-16 0 -23 7t-11 30l-39 289q-4 20 -11.5 26t-23.5 6h-86q-16 0 -23.5 -5t-11.5 -27l-33 -293q-2 -20 -8 -26.5t-29 -6.5h-188q-37 0 -35 31zM324 623q-4 -23 26 -23 h51q33 0 29 23l-39 471q-2 31 -16 30q-14 0 -17 -32z" />
<glyph unicode="&#x431;" horiz-adv-x="724" d="M53 94v1178q0 57 13.5 75.5t54.5 18.5h440q41 0 56.5 -19.5t15.5 -68.5v-72q0 -47 -14.5 -64.5t-49.5 -17.5h-239q-25 0 -31 -10t-6 -45l2 -211h172q113 0 171 -107.5t58 -314.5q0 -217 -66.5 -326.5t-195.5 -109.5h-315q-37 0 -51.5 20.5t-14.5 73.5zM295 279 q0 -25 8 -31t25 -6h59q18 0 30.5 7t20.5 27.5t12.5 58.5t4.5 99t-4.5 97t-11.5 54.5t-18 24.5t-28 6h-67q-31 0 -31 -34v-303z" />
<glyph unicode="&#x432;" horiz-adv-x="739" d="M53 90v1188q0 49 14.5 68.5t51.5 19.5h370q66 0 106 -26.5t61.5 -72.5t28.5 -109.5t7 -135.5q0 -129 -25.5 -201.5t-84.5 -107.5q63 -25 96 -113t33 -231q0 -80 -10.5 -147.5t-35 -117t-67.5 -77t-109 -27.5h-370q-39 0 -52.5 18.5t-13.5 71.5zM293 283q0 -23 6 -32 t29 -9h39q61 0 80.5 35t19.5 135q0 55 -6 89t-18.5 53t-32 25.5t-43.5 6.5h-39q-23 0 -29 -8.5t-6 -32.5v-262zM293 868q0 -23 6 -32t29 -9h39q55 0 70.5 32t15.5 116q0 49 -6.5 77.5t-17.5 45t-26.5 21.5t-35.5 5h-39q-23 0 -29 -8t-6 -33v-215z" />
<glyph unicode="&#x433;" horiz-adv-x="587" d="M53 86v1186q0 57 13.5 75.5t54.5 18.5h389q41 0 56.5 -19.5t15.5 -68.5v-72q0 -47 -14.5 -64.5t-49.5 -17.5h-188q-25 0 -31 -10t-6 -45v-983q0 -49 -12.5 -67.5t-47.5 -18.5h-114q-39 0 -52.5 17.5t-13.5 68.5z" />
<glyph unicode="&#x434;" horiz-adv-x="929" d="M6 170q0 51 17.5 61.5t44.5 10.5h14q14 0 41 78.5t47 224.5q16 109 29.5 256t23.5 358l6 148q2 47 23.5 53t48.5 6h430q27 0 41 -6t21.5 -16.5t8.5 -22.5t1 -27v-1024q0 -18 3 -23t21 -5h25q27 0 41 -6.5t21.5 -16.5t8.5 -22.5t1 -26.5v-363q0 -27 -6.5 -41t-16.5 -21 t-22.5 -8t-26.5 -1h-88q-51 0 -61.5 21.5t-10.5 49.5v162q0 12 -8 21.5t-25 9.5h-385q-29 0 -32.5 -15.5t-3.5 -23.5v-154q0 -27 -6.5 -41t-16.5 -21t-22.5 -8t-26.5 -1h-88q-51 0 -61.5 21.5t-10.5 49.5v363zM369 256q4 -14 28 -14h138q8 0 18 3t10 25v828q0 6 -4 15t-20 9 h-64q-8 0 -17 -5t-12 -30l-6 -108q-2 -45 -5 -100.5t-6 -113.5t-8 -115.5t-11 -108.5q-10 -90 -22.5 -166t-18.5 -103q-4 -10 0 -16z" />
<glyph unicode="&#x435;" horiz-adv-x="616" d="M53 90v1186q0 51 15.5 70.5t54.5 19.5h405q39 0 52.5 -15.5t13.5 -64.5v-76q0 -51 -13.5 -68.5t-52.5 -17.5h-200q-23 0 -30 -8t-7 -37v-190q0 -29 5 -36t32 -7h102q35 0 47 -14.5t12 -55.5v-104q0 -41 -13 -54.5t-46 -13.5h-102q-23 0 -30 -6t-7 -25v-286q0 -25 7 -35 t36 -10h203q41 0 57 -19.5t16 -68.5v-66q0 -47 -16 -67.5t-53 -20.5h-418q-41 0 -55.5 18.5t-14.5 71.5z" />
<glyph unicode="&#x436;" horiz-adv-x="1144" d="M6 29q0 12 8 32l207 727l-170 472q-8 23 -14 38t-6 31q0 23 15 30t38 7h133q23 0 43.5 -8t32.5 -49l125 -410q4 -16 10 -20.5t10 -4.5q14 0 15 37v367q0 33 7 51.5t17 26.5t21.5 9t19.5 1h113q43 0 52 -29.5t9 -56.5v-369q0 -37 15 -37q4 0 10 4.5t10 20.5l125 410 q12 41 32.5 49t43.5 8h133q23 0 38 -7t15 -30q0 -16 -6 -31.5t-14 -37.5l-170 -472l206 -727q8 -20 9 -32q0 -29 -41 -29h-168q-35 0 -43 19.5t-15 39.5l-139 514q-2 6 -7 14.5t-15 8.5q-12 0 -15.5 -8t-3.5 -19v-487q0 -14 -1 -28.5t-7 -27t-19.5 -19.5t-35.5 -7h-109 q-12 0 -24.5 1t-21.5 10t-15 27.5t-6 51.5v479q0 10 -3.5 18.5t-15.5 8.5q-10 0 -15 -8t-7 -15l-140 -514q-4 -20 -13 -39.5t-44 -19.5h-168q-41 0 -41 29z" />
<glyph unicode="&#x437;" horiz-adv-x="587" d="M6 84v70q0 33 5 51t14.5 26.5t21.5 9.5t27 1h162q49 0 63 49t14 139t-13 131t-52 41h-98q-39 0 -50.5 15.5t-11.5 70.5v72q0 55 11.5 70.5t50.5 15.5h98q20 0 40.5 27.5t20.5 111.5q0 74 -21.5 106.5t-51.5 32.5h-146q-14 0 -26.5 1t-21.5 9.5t-14 27t-5 50.5v70 q0 59 16 71.5t51 12.5h229q29 0 74 -7t82 -38q27 -23 41 -55.5t21.5 -70.5t9.5 -76t2 -70q0 -49 -3 -97.5t-15.5 -89.5t-37 -76.5t-67.5 -60.5q25 -14 48.5 -32.5t42 -53.5t30.5 -93.5t12 -152.5q0 -76 -6 -129t-15.5 -91t-21.5 -61.5t-27 -39.5q-45 -51 -97 -61.5 t-91 -10.5h-227q-35 0 -51.5 12.5t-16.5 71.5z" />
<glyph unicode="&#x438;" horiz-adv-x="800" d="M53 92v1182q0 59 19.5 75.5t54.5 16.5h106q37 0 50.5 -21.5t13.5 -68.5v-471q0 -23 2 -31t8 -8t11.5 5t11.5 24l172 508q16 43 29.5 53t50.5 10h94q43 0 57.5 -18.5t14.5 -71.5v-1184q0 -59 -19.5 -75.5t-54.5 -16.5h-107q-37 0 -50 21.5t-13 68.5v473q0 23 -2 31t-8 8 t-11.5 -5t-11.5 -24l-172 -510q-14 -43 -28.5 -53t-51.5 -10h-94q-43 0 -57.5 19.5t-14.5 72.5z" />
<glyph unicode="&#x439;" horiz-adv-x="800" d="M53 92v1182q0 59 19.5 75.5t54.5 16.5h106q37 0 50.5 -21.5t13.5 -68.5v-471q0 -23 2 -31t8 -8t11.5 5t11.5 24l172 508q16 43 29.5 53t50.5 10h94q43 0 57.5 -18.5t14.5 -71.5v-1184q0 -59 -19.5 -75.5t-54.5 -16.5h-107q-37 0 -50 21.5t-13 68.5v473q0 23 -2 31t-8 8 t-11.5 -5t-11.5 -24l-172 -510q-14 -43 -28.5 -53t-51.5 -10h-94q-43 0 -57.5 19.5t-14.5 72.5zM139 1618q0 27 23 27h55q20 0 27 -27q4 -12 12 -22.5t24.5 -16.5t45 -9t73.5 -3q88 0 119 12t35 39q10 27 25 27h57q22 0 22 -27q0 -33 -12 -67.5t-42 -64.5t-79 -48.5 t-125 -18.5t-126 18.5t-79.5 48.5t-42 64.5t-12.5 67.5z" />
<glyph unicode="&#x43a;" horiz-adv-x="768" d="M53 90v1184q0 53 14.5 72.5t53.5 19.5h110q35 0 49.5 -19.5t14.5 -72.5v-305q0 -20 8 -23q10 -2 23 23l151 319q20 43 32.5 60.5t45.5 17.5h182q25 0 25 -25q0 -12 -6 -24l-203 -393q-10 -18 -12 -39q-2 -12 0 -21.5t6 -21.5l207 -781q10 -41 2 -51t-35 -10h-168 q-27 0 -38 12.5t-19 46.5l-97 455q-6 29 -10 46.5t-14 17.5q-6 0 -10.5 -2.5t-10.5 -9.5t-15 -24.5t-26 -47.5q-12 -23 -15 -50.5t-3 -64.5v-293q0 -55 -14.5 -70.5t-53.5 -15.5h-102q-43 0 -57.5 17.5t-14.5 72.5z" />
<glyph unicode="&#x43b;" horiz-adv-x="841" d="M6 51v142q0 10 5 29.5t34 19.5h18q31 0 53.5 41t38 109.5t24.5 156.5t14.5 182t7.5 185.5t2 166.5q0 78 -1 131.5t-1 63.5q0 33 7 51.5t18.5 26.5t22.5 9t19 1h453q47 0 57 -26.5t10 -63.5v-1192q0 -61 -16 -72.5t-43 -11.5h-115q-25 0 -44 11.5t-19 72.5v1003 q0 14 -4 25.5t-27 11.5h-51q-23 0 -30 -8t-7 -37l-4 -284q-4 -150 -14.5 -256.5t-24.5 -181t-30.5 -124t-30.5 -83.5q-12 -27 -29.5 -55.5t-43.5 -50t-63.5 -36t-89.5 -14.5h-43q-37 0 -45 20.5t-8 36.5z" />
<glyph unicode="&#x43c;" horiz-adv-x="954" d="M53 88v1194q0 51 12.5 67.5t53.5 16.5h112q49 0 64.5 -10t28.5 -53l137 -492q6 -18 16 -18t17 18l137 492q12 43 27.5 53t64.5 10h113q41 0 53 -16.5t12 -67.5v-1194q0 -55 -12 -71.5t-55 -16.5h-109q-41 0 -53.5 18.5t-12.5 67.5v555v31.5t-8 17.5q-6 0 -10 -14t-8 -31 l-82 -405q-8 -39 -24.5 -50.5t-49.5 -11.5t-49 11.5t-25 50.5l-81 405q-4 16 -8.5 30.5t-10.5 14.5q-8 0 -8 -17.5v-31.5v-555q0 -49 -12.5 -67.5t-53.5 -18.5h-108q-43 0 -55.5 16.5t-12.5 71.5z" />
<glyph unicode="&#x43d;" horiz-adv-x="774" d="M53 90v1188q0 49 15.5 68.5t52.5 19.5h110q35 0 48.5 -20.5t13.5 -65.5v-395q0 -25 7 -32t24 -7h127q16 0 23 7t7 32v395q0 45 13.5 65.5t48.5 20.5h110q37 0 52.5 -19.5t15.5 -68.5v-1188q0 -53 -14.5 -71.5t-53.5 -18.5h-108q-41 0 -52.5 21.5t-11.5 66.5v473 q0 25 -6 34t-26 9h-123q-20 0 -26.5 -9t-6.5 -34v-473q0 -45 -11.5 -66.5t-52.5 -21.5h-108q-39 0 -53.5 18.5t-14.5 71.5z" />
<glyph unicode="&#x43e;" d="M35 686q0 154 5 281t35.5 219t97.5 143t192 51q123 0 190.5 -51t98 -143t35.5 -219t5 -281t-5 -283t-35.5 -222t-98.5 -146t-190 -53q-125 0 -192 53t-97.5 146t-35.5 222t-5 283zM274 686q0 -135 2.5 -221t10.5 -136t26.5 -68.5t51.5 -18.5t51 18.5t26.5 68.5t10.5 136 t2 221t-2 220t-10.5 133t-27 65.5t-50.5 17.5q-33 0 -51.5 -17.5t-26.5 -65.5t-10.5 -133t-2.5 -220z" />
<glyph unicode="&#x43f;" horiz-adv-x="774" d="M53 90v1188q0 49 15.5 68.5t52.5 19.5h532q37 0 52.5 -19.5t15.5 -68.5v-1188q0 -53 -14.5 -71.5t-53.5 -18.5h-108q-41 0 -52.5 21.5t-11.5 66.5v995q0 25 -6 34t-26 9h-123q-20 0 -26.5 -11t-6.5 -36v-991q0 -45 -11.5 -66.5t-52.5 -21.5h-108q-39 0 -53.5 18.5 t-14.5 71.5z" />
<glyph unicode="&#x440;" horiz-adv-x="710" d="M53 88v1184q0 53 14.5 73.5t51.5 20.5h315q129 0 195.5 -109.5t66.5 -326.5q0 -207 -58 -314.5t-171 -107.5h-172v-420q0 -53 -12.5 -70.5t-53.5 -17.5h-110q-41 0 -53.5 16.5t-12.5 71.5zM295 784q0 -35 31 -34h67q16 0 27.5 6t18.5 24.5t11.5 54.5t4.5 97t-4.5 99 t-12.5 58.5t-20 27.5t-31 7h-59q-16 0 -24.5 -6t-8.5 -31v-303z" />
<glyph unicode="&#x441;" horiz-adv-x="593" d="M35 657q0 207 5 343.5t28.5 217t70.5 114.5t131 34h254q35 0 49.5 -15.5t14.5 -56.5v-92q0 -47 -13.5 -62.5t-54.5 -15.5h-155q-29 0 -46.5 -8t-25.5 -51t-10 -133t-2 -252q0 -160 3 -248t11 -131t23.5 -51t41.5 -8h160q37 0 51.5 -15.5t14.5 -54.5v-98 q0 -41 -13.5 -57.5t-48.5 -16.5h-243q-78 0 -126.5 26.5t-75 98.5t-35.5 201t-9 331z" />
<glyph unicode="&#x442;" horiz-adv-x="645" d="M6 1206v70q0 53 13.5 71.5t54.5 18.5h499q37 0 51.5 -17.5t14.5 -64.5v-76q0 -49 -13.5 -66.5t-50.5 -17.5h-106q-16 0 -21.5 -8t-5.5 -33v-993q0 -53 -12 -71.5t-53 -18.5h-107q-41 0 -55 17.5t-14 66.5v999q0 29 -7.5 35t-19.5 6h-106q-37 0 -49.5 15.5t-12.5 66.5z " />
<glyph unicode="&#x443;" horiz-adv-x="745" d="M6 1311q-10 39 6.5 47t30.5 8h164q35 0 41 -15.5t14 -50.5l107 -581q4 -16 5 -23.5t11 -7.5q16 0 18 31l97 581q4 25 11 45.5t42 20.5h152q31 0 34.5 -14.5t-0.5 -40.5l-209 -1030q-10 -61 -34.5 -113.5t-60.5 -90.5t-84 -60.5t-107 -22.5h-103q-31 0 -48 7t-25.5 19.5 t-10.5 29t-2 34.5v80q0 6 3 19.5t10.5 25.5t20.5 22.5t34 10.5h35q35 0 60.5 25.5t6.5 97.5z" />
<glyph unicode="&#x444;" horiz-adv-x="1093" d="M25 694q0 109 15 198t53 154.5t103.5 103.5t165.5 40l64 2v115q0 45 13.5 65.5t47.5 20.5h119q35 0 48.5 -20.5t13.5 -65.5v-115l65 -2q184 -6 260 -125t76 -371q0 -102 -13.5 -191t-50 -155.5t-101 -104.5t-169.5 -38h-67v-115q0 -53 -12.5 -71.5t-53.5 -18.5h-106 q-41 0 -55.5 17.5t-14.5 66.5v121h-66q-106 0 -172.5 38t-102.5 104.5t-48 155.5t-12 191zM265 613q-1 -44 6.5 -80.5t29 -61.5t64.5 -25h30q31 0 31 35v430q0 25 -8 31t-25 6h-31q-43 0 -62 -25.5t-27.5 -63.5t-7.5 -82t1 -81q0 -39 -1 -83zM668 481q0 -35 30 -35h33 q43 0 63.5 25t27.5 62.5t6 81.5t-1 81t1 81t-7 82t-27.5 63.5t-62.5 25.5h-31q-16 0 -24 -6t-8 -31v-430z" />
<glyph unicode="&#x445;" horiz-adv-x="700" d="M7 17.5q-7 17.5 3 58.5l135 633l-135 583q-10 41 1.5 57.5t39.5 16.5h156q41 0 53 -55l74 -385q4 -16 6 -21.5t10 -5.5t10 5t7 22l73 385q12 55 54 55h155q29 0 40 -16.5t1 -57.5l-137 -583l137 -633q10 -41 3 -58.5t-36 -17.5h-159q-47 0 -56 51l-73 424q-6 25 -19 25 q-12 0 -18 -25l-74 -424q-8 -51 -55 -51h-160q-29 0 -36 17.5z" />
<glyph unicode="&#x446;" horiz-adv-x="847" d="M53 88v1188q0 35 6.5 52.5t15.5 26.5t21.5 10t24.5 1h108q25 0 38.5 -8t18.5 -21.5t6 -29t1 -29.5v-981q0 -12 5 -33.5t32 -21.5h114q27 0 32 20.5t5 34.5v985q0 61 19.5 72.5t44.5 11.5h117q27 0 43 -11.5t16 -72.5v-995q0 -18 7 -31.5t26 -13.5h16q27 0 41 -6.5 t21.5 -16.5t8.5 -22.5t1 -26.5v-363q0 -27 -6.5 -41t-16.5 -21t-22.5 -8t-26.5 -1h-88q-51 0 -61.5 21.5t-10.5 49.5v162q0 12 -8 21.5t-24 9.5h-457q-8 0 -19.5 1t-21.5 8t-18.5 25.5t-8.5 53.5z" />
<glyph unicode="&#x447;" horiz-adv-x="745" d="M45 838v440q0 35 8 53.5t18.5 25.5t21.5 8t20 1h110q43 0 52.5 -29.5t9.5 -56.5v-432q0 -35 7 -54.5t19.5 -28.5t28.5 -11t37 -2h37q31 0 35 17t4 34v477q0 35 7 52.5t18 24.5t22.5 8t17.5 1h107q47 0 57 -26.5t10 -63.5v-1192q0 -61 -16.5 -72.5t-42.5 -11.5h-117 q-25 0 -44 11.5t-19 72.5v383q0 14 -2 28.5t-29 14.5h-49q-74 0 -134.5 2t-103.5 31.5t-66.5 97.5t-23.5 197z" />
<glyph unicode="&#x448;" horiz-adv-x="1140" d="M53 88v1188q0 35 6.5 52.5t15.5 26.5t21.5 10t24.5 1h108q25 0 38.5 -8t18.5 -21.5t6 -29t1 -29.5v-993q0 -12 3 -27.5t30 -15.5h94q27 0 29 14t2 29v997q0 61 19 72.5t44 11.5h117q27 0 43 -11.5t16 -72.5v-997q0 -12 3 -27.5t30 -15.5h94q27 0 29 14t2 29v997 q0 61 19.5 72.5t43.5 11.5h117q27 0 43 -11.5t16 -72.5v-1192q0 -37 -10 -63.5t-57 -26.5h-899q-8 0 -19.5 1t-21.5 8t-18.5 25.5t-8.5 53.5z" />
<glyph unicode="&#x449;" horiz-adv-x="1214" d="M53 88v1188q0 35 6.5 52.5t15.5 26.5t21.5 10t24.5 1h108q25 0 38.5 -8t18.5 -21.5t6 -29t1 -29.5v-993q0 -12 3 -27.5t30 -15.5h94q27 0 29 14t2 29v997q0 61 19 72.5t44 11.5h117q27 0 43 -11.5t16 -72.5v-997q0 -12 3 -27.5t30 -15.5h94q27 0 29 14t2 29v997 q0 61 19.5 72.5t43.5 11.5h117q27 0 43 -11.5t16 -72.5v-1012q0 -18 3.5 -23t21.5 -5h25q14 0 26.5 -1t22.5 -8.5t16 -21.5t6 -41v-363q0 -27 -6 -41t-16 -21t-22.5 -8t-26.5 -1h-88q-51 0 -61.5 21.5t-10.5 49.5v162q0 12 -8 21.5t-25 9.5h-823q-8 0 -19.5 1t-21.5 8 t-18.5 25.5t-8.5 53.5z" />
<glyph unicode="&#x44a;" horiz-adv-x="872" d="M6 1206v70q0 53 13.5 71.5t54.5 18.5h297q39 0 55 -19.5t16 -68.5v-420h172q113 0 171.5 -107.5t58.5 -314.5q0 -217 -66.5 -326.5t-195.5 -109.5h-316q-37 0 -51 20.5t-14 73.5v989q0 29 -7.5 35t-19.5 6h-106q-37 0 -49.5 15.5t-12.5 66.5zM442 279q0 -25 8.5 -31 t24.5 -6h60q18 0 30.5 7t20.5 27.5t12 58.5t4 99t-4 97t-11 54.5t-18.5 24.5t-27.5 6h-68q-31 0 -31 -34v-303z" />
<glyph unicode="&#x44b;" horiz-adv-x="1073" d="M53 94v1178q0 57 13.5 75.5t54.5 18.5h102q41 0 56.5 -19.5t15.5 -68.5v-420h172q113 0 171 -107.5t58 -314.5q0 -217 -66.5 -326.5t-195.5 -109.5h-315q-37 0 -51.5 20.5t-14.5 73.5zM295 279q0 -25 8 -31t25 -6h59q18 0 30.5 7t20.5 27.5t12.5 58.5t4.5 99t-4.5 97 t-11.5 54.5t-18 24.5t-28 6h-67q-31 0 -31 -34v-303zM778 90q0 -55 14.5 -72.5t57.5 -17.5h102q39 0 53.5 15.5t14.5 70.5v1188q0 53 -14.5 72.5t-49.5 19.5h-110q-39 0 -53.5 -19.5t-14.5 -72.5v-1184z" />
<glyph unicode="&#x44c;" horiz-adv-x="724" d="M53 94v1178q0 57 13.5 75.5t54.5 18.5h102q41 0 56.5 -19.5t15.5 -68.5v-420h172q113 0 171 -107.5t58 -314.5q0 -217 -66.5 -326.5t-195.5 -109.5h-315q-37 0 -51.5 20.5t-14.5 73.5zM295 279q0 -25 8 -31t25 -6h59q18 0 30.5 7t20.5 27.5t12.5 58.5t4.5 99t-4.5 97 t-11.5 54.5t-18 24.5t-28 6h-67q-31 0 -31 -34v-303z" />
<glyph unicode="&#x44d;" horiz-adv-x="593" d="M6 1202v92q0 41 14.5 56.5t49.5 15.5h254q84 0 131 -34t70.5 -114.5t28.5 -217t5 -343.5q0 -203 -9 -331.5t-36 -200.5t-75 -98.5t-126 -26.5h-243q-35 0 -48.5 16.5t-13.5 57.5v98q0 39 14.5 54.5t51.5 15.5h159q29 0 40.5 7t21.5 36q12 35 14 107t4 181q0 18 -7 24.5 t-30 6.5h-124q-33 0 -46.5 13.5t-13.5 54.5v104q0 41 12.5 55.5t47.5 14.5h124q27 0 32 7t5 36q-4 68 -7 114t-9 74q-8 35 -27.5 41t-40.5 6h-155q-41 0 -54.5 15.5t-13.5 62.5z" />
<glyph unicode="&#x44e;" horiz-adv-x="1110" d="M53 90v1188q0 35 8.5 53.5t18.5 25.5t21.5 8t19.5 1h110q43 0 52.5 -29.5t9.5 -56.5v-395q0 -29 12 -34t19 -5h59q27 0 30 16.5t3 28.5q4 109 16 198t47 154.5t98.5 101t167.5 35.5q123 0 191 -51t98.5 -143t35.5 -219t5 -281t-5 -283t-35.5 -222t-98.5 -146t-191 -53 q-113 0 -178 42t-98 118.5t-42 184t-11 238.5q0 10 -5 24.5t-26 14.5h-59q-27 0 -30 -15.5t-3 -27.5v-473q0 -14 -1 -29.5t-6 -29t-18.5 -21.5t-38.5 -8h-108q-12 0 -24.5 1t-21.5 10t-15.5 27.5t-6.5 51.5zM655 686q0 -135 2 -221t10.5 -136t27 -68.5t50.5 -18.5 q33 0 51.5 18.5t26.5 68.5t10.5 136t2.5 221t-2.5 220t-10.5 133t-26.5 65.5t-51.5 17.5t-51 -17.5t-26.5 -65.5t-10.5 -133t-2 -220z" />
<glyph unicode="&#x44f;" horiz-adv-x="718" d="M10 29q0 6 4 26l119 582q-59 51 -84.5 120.5t-25.5 186.5q0 422 280 422h293q41 0 55.5 -19.5t14.5 -72.5v-1186q0 -53 -13.5 -70.5t-52.5 -17.5h-111q-37 0 -52 19.5t-15 66.5v465q0 16 -6 17t-17 1h-28q-10 0 -15.5 -2t-9.5 -16l-84 -492q-6 -37 -16 -48t-39 -11h-160 q-37 0 -37 29zM260 975q0 -88 18.5 -126t55.5 -38h67q20 0 21 37v248q0 29 -27 28h-65q-33 0 -51.5 -30.5t-18.5 -118.5z" />
<glyph unicode="&#x451;" horiz-adv-x="616" d="M53 90v1186q0 51 15.5 70.5t54.5 19.5h405q39 0 52.5 -15.5t13.5 -64.5v-76q0 -51 -13.5 -68.5t-52.5 -17.5h-200q-23 0 -30 -8t-7 -37v-190q0 -29 5 -36t32 -7h102q35 0 47 -14.5t12 -55.5v-104q0 -41 -13 -54.5t-46 -13.5h-102q-23 0 -30 -6t-7 -25v-286q0 -25 7 -35 t36 -10h203q41 0 57 -19.5t16 -68.5v-66q0 -47 -16 -67.5t-53 -20.5h-418q-41 0 -55.5 18.5t-14.5 71.5zM84 1481v78q0 35 12.5 49t50.5 14h60q39 0 51 -14.5t12 -48.5v-78q0 -35 -12 -49.5t-51 -14.5h-60q-39 0 -51 14.5t-12 49.5zM332 1481v78q0 35 12 49t51 14h60 q39 0 51 -14.5t12 -48.5v-78q0 -35 -12 -49.5t-51 -14.5h-60q-39 0 -51 14.5t-12 49.5z" />
<glyph unicode="&#x452;" horiz-adv-x="940" d="M6 1206v70q0 53 13.5 71.5t54.5 18.5h499q37 0 51.5 -17.5t14.5 -64.5v-76q0 -49 -13.5 -66.5t-50.5 -17.5h-108q-16 0 -21.5 -8t-5.5 -33v-182q0 -18 4.5 -30.5t26.5 -12.5h49q74 0 143.5 -9t125 -51t89 -129t33.5 -245q0 -74 -9 -149.5t-38.5 -137t-83 -99.5 t-139.5 -38h-49q-45 0 -58.5 15.5t-13.5 68.5v76q0 51 12.5 66.5t47.5 15.5q31 0 38 2q23 0 35.5 17.5t18.5 44t7 61t1 67.5q0 66 -14.5 101.5t-37 54t-53 22.5t-63.5 4h-33q-29 0 -34 -16t-5 -33v-481q0 -33 -7 -50.5t-17 -25.5t-20.5 -9t-18.5 -1h-109q-47 0 -57 26.5 t-10 63.5v993q0 29 -7.5 35t-19.5 6h-106q-37 0 -49.5 15.5t-12.5 66.5z" />
<glyph unicode="&#x453;" horiz-adv-x="587" d="M53 86v1186q0 57 13.5 75.5t54.5 18.5h389q41 0 56.5 -19.5t15.5 -68.5v-72q0 -47 -14.5 -64.5t-49.5 -17.5h-188q-25 0 -31 -10t-6 -45v-983q0 -49 -12.5 -67.5t-47.5 -18.5h-114q-39 0 -52.5 17.5t-13.5 68.5zM150 1436q0 14 10 26l92 121q16 23 23.5 28t21.5 5h180 q29 0 29 -27q0 -14 -21 -33l-141 -120q-12 -10 -19.5 -14.5t-25.5 -4.5h-127q-23 0 -22 19z" />
<glyph unicode="&#x454;" horiz-adv-x="593" d="M35 657q0 207 5 343.5t28.5 217t70.5 114.5t131 34h254q35 0 49.5 -15.5t14.5 -56.5v-92q0 -47 -13.5 -62.5t-54.5 -15.5h-155q-20 0 -40 -6t-28 -41q-6 -29 -9 -75t-7 -113q0 -29 5 -36t31 -7h125q35 0 47.5 -14.5t12.5 -55.5v-104q0 -41 -13.5 -54.5t-46.5 -13.5h-125 q-23 0 -29.5 -6.5t-6.5 -24.5q2 -109 4 -181.5t14 -106.5q10 -29 21.5 -36t39.5 -7h160q37 0 51.5 -15.5t14.5 -54.5v-98q0 -41 -13.5 -57.5t-48.5 -16.5h-243q-78 0 -126.5 26.5t-75 98.5t-35.5 201t-9 331z" />
<glyph unicode="&#x455;" horiz-adv-x="618" d="M10 1118q0 139 63.5 193.5t190.5 54.5h234q31 0 44 -16.5t13 -57.5v-90q0 -43 -14.5 -60.5t-48.5 -17.5h-183q-51 0 -60 -37.5t15 -82.5l219 -404q41 -76 65.5 -130t38 -97t17.5 -79t4 -75q0 -123 -60.5 -171t-158.5 -48h-305q-41 0 -54.5 16.5t-13.5 67.5v72 q0 53 12.5 69.5t53.5 16.5h211q45 0 52 33.5t-9 66.5l-232 436q-33 63 -52 113.5t-28.5 91.5t-11.5 74t-2 61z" />
<glyph unicode="&#x456;" horiz-adv-x="348" d="M53 90v1184q0 53 14.5 72.5t53.5 19.5h110q35 0 49.5 -19.5t14.5 -72.5v-1188q0 -55 -14.5 -70.5t-53.5 -15.5h-102q-43 0 -57.5 17.5t-14.5 72.5z" />
<glyph unicode="&#x457;" horiz-adv-x="348" d="M-41 1481v78q0 35 12.5 49t51.5 14h59q39 0 51 -14.5t12 -48.5v-78q0 -35 -12 -49.5t-51 -14.5h-59q-39 0 -51.5 14.5t-12.5 49.5zM53 90v1184q0 53 14.5 72.5t53.5 19.5h110q35 0 49.5 -19.5t14.5 -72.5v-1188q0 -55 -14.5 -70.5t-53.5 -15.5h-102q-43 0 -57.5 17.5 t-14.5 72.5zM207 1481v78q0 35 12 49t51 14h60q39 0 51 -14.5t12 -48.5v-78q0 -35 -12 -49.5t-51 -14.5h-60q-39 0 -51 14.5t-12 49.5z" />
<glyph unicode="&#x458;" horiz-adv-x="471" d="M6 84v76q0 53 14.5 67.5t51.5 14.5h53q35 0 50 16t15 74v948q0 53 13.5 69.5t56.5 16.5h102q43 0 56.5 -16.5t13.5 -67.5v-932q0 -72 -10 -130t-37 -107q-33 -59 -81 -86t-126 -27h-100q-45 0 -58.5 15.5t-13.5 68.5z" />
<glyph unicode="&#x459;" horiz-adv-x="1220" d="M6 51v142q0 10 5 29.5t34 19.5h18q31 0 53.5 41t38 109.5t24.5 156.5t14.5 182t7.5 185.5t2 166.5q0 78 -1 131.5t-1 63.5q0 33 7 51.5t18.5 26.5t22.5 9t19 1h453q41 0 55.5 -19.5t14.5 -68.5v-420h172q113 0 171 -107.5t58 -314.5q0 -217 -66.5 -326.5t-195.5 -109.5 h-316q-25 0 -44 11.5t-19 72.5v1003q0 14 -4 25.5t-27 11.5h-51q-23 0 -30 -8t-7 -37l-4 -284q-4 -150 -14.5 -256.5t-24.5 -181t-30.5 -124t-30.5 -83.5q-12 -27 -29.5 -55.5t-43.5 -50t-63.5 -36t-89.5 -14.5h-43q-37 0 -45 20.5t-8 36.5zM791 279q0 -25 8 -31t24 -6h60 q18 0 30.5 7t20.5 27.5t12 58.5t4 99t-4 97t-11 54.5t-18.5 24.5t-27.5 6h-68q-31 0 -30 -34v-303z" />
<glyph unicode="&#x45a;" horiz-adv-x="1153" d="M53 90v1188q0 49 15.5 68.5t52.5 19.5h110q35 0 48.5 -20.5t13.5 -65.5v-383q0 -25 7 -32t24 -7h127q16 0 23 7t7 32v383q0 45 13.5 65.5t48.5 20.5h110q41 0 55.5 -19.5t14.5 -68.5v-420h172q113 0 171 -107.5t58 -314.5q0 -217 -66.5 -326.5t-195.5 -109.5h-317 q-41 0 -52.5 21.5t-11.5 66.5v485q0 25 -6 34t-26 9h-123q-20 0 -26.5 -9t-6.5 -34v-485q0 -45 -11.5 -66.5t-52.5 -21.5h-108q-39 0 -53.5 18.5t-14.5 71.5zM723 279q0 -25 8 -31t25 -6h59q18 0 30.5 7t20.5 27.5t12.5 58.5t4.5 99t-4.5 97t-11.5 54.5t-18 24.5t-28 6h-67 q-31 0 -31 -34v-303z" />
<glyph unicode="&#x45b;" horiz-adv-x="892" d="M6 1206v70q0 53 13.5 71.5t54.5 18.5h499q37 0 51.5 -17.5t14.5 -64.5v-76q0 -49 -13.5 -66.5t-50.5 -17.5h-108q-16 0 -21.5 -8t-5.5 -33v-182q0 -14 2 -28.5t29 -14.5h49q74 0 134.5 -2t103.5 -31.5t66.5 -97.5t23.5 -197v-440q0 -35 -7 -53.5t-18.5 -25.5t-23 -8 t-19.5 -1h-110q-43 0 -52.5 29.5t-9.5 56.5v432q0 35 -7 54.5t-19.5 28.5t-28.5 11t-37 2h-37q-31 0 -35 -17t-4 -34v-477q0 -33 -7 -51.5t-18.5 -25.5t-22.5 -8t-17 -1h-107q-47 0 -57 26.5t-10 63.5v991q0 29 -7.5 35t-19.5 6h-106q-37 0 -49.5 15.5t-12.5 66.5z" />
<glyph unicode="&#x45c;" horiz-adv-x="768" d="M37 92v1184q0 35 6 52.5t15.5 26.5t22.5 10t25 1h101q16 0 28.5 -1t21.5 -9t14 -26.5t5 -53.5v-307q0 -8 1.5 -15.5t11.5 -7.5q8 0 18 23l154 323q10 23 17 37t15.5 22.5t17.5 11.5t26 3h182q16 0 22.5 -7t1.5 -18l-6 -24l-202 -393q-4 -8 -8.5 -16.5t-4.5 -22.5v-17.5 t4 -17.5l209 -789q2 -10 5 -20t1 -19.5t-10 -15.5t-29 -6h-167q-35 0 -44.5 19.5t-13.5 39.5l-104 490q-2 10 -6.5 26.5t-14.5 16.5q-8 0 -15 -12.5t-11 -22.5l-33 -70q-4 -6 -10.5 -25.5t-6.5 -41.5v-336q0 -53 -11 -68.5t-50 -15.5h-106q-39 0 -55.5 12.5t-16.5 79.5z M248 1436q0 14 10 26l92 121q16 23 23.5 28t21.5 5h180q29 0 29 -27q0 -14 -20 -33l-142 -120q-12 -10 -19 -14.5t-26 -4.5h-127q-23 0 -22 19z" />
<glyph unicode="&#x45e;" horiz-adv-x="745" d="M6 1311q-10 39 6.5 47t30.5 8h164q35 0 41 -15.5t14 -50.5l107 -581q4 -16 5 -23.5t11 -7.5q16 0 18 31l97 581q4 25 11 45.5t42 20.5h152q31 0 34.5 -14.5t-0.5 -40.5l-209 -1030q-10 -61 -34.5 -113.5t-60.5 -90.5t-84 -60.5t-107 -22.5h-103q-31 0 -48 7t-25.5 19.5 t-10.5 29t-2 34.5v80q0 6 3 19.5t10.5 25.5t20.5 22.5t34 10.5h35q35 0 60.5 25.5t6.5 97.5zM111 1618q0 27 22 27h55q20 0 27 -27q4 -12 12.5 -22.5t24.5 -16.5t45 -9t74 -3q88 0 118.5 12t34.5 39q10 27 25 27h57q23 0 23 -27q0 -33 -12.5 -67.5t-42 -64.5t-79 -48.5 t-124.5 -18.5q-76 0 -126 18.5t-80 48.5t-42 64.5t-12 67.5z" />
<glyph unicode="&#x45f;" horiz-adv-x="774" d="M53 88v1188q0 53 14.5 71.5t53.5 18.5h108q41 0 52.5 -21.5t11.5 -66.5v-991q0 -25 6 -36t27 -11h123q20 0 26 9t6 34v995q0 45 11.5 66.5t52.5 21.5h108q39 0 53.5 -18.5t14.5 -71.5v-1188q0 -49 -15.5 -68.5t-52.5 -19.5h-141q-16 0 -24.5 -9t-8.5 -22v-162 q0 -14 -1 -26t-8 -22.5t-21.5 -16.5t-40.5 -6h-89q-51 0 -61 21.5t-10 49.5v162q0 12 -8.5 21.5t-24.5 9.5h-94q-37 0 -52.5 19.5t-15.5 68.5z" />
<glyph unicode="&#x490;" horiz-adv-x="569" d="M53 88v1188q0 55 13.5 72.5t54.5 17.5h160q29 0 35 7t6 20v106q0 37 15 49.5t66 12.5h70q53 0 71.5 -13.5t18.5 -54.5v-283q0 -49 -14 -67.5t-55 -18.5h-166q-16 0 -24.5 -9t-8.5 -34v-993q0 -49 -12.5 -68.5t-53.5 -19.5h-108q-37 0 -52.5 20.5t-15.5 67.5z" />
<glyph unicode="&#x491;" horiz-adv-x="569" d="M53 88v1188q0 55 13.5 72.5t54.5 17.5h160q29 0 35 7t6 20v106q0 37 15 49.5t66 12.5h70q53 0 71.5 -13.5t18.5 -54.5v-283q0 -49 -14 -67.5t-55 -18.5h-166q-16 0 -24.5 -9t-8.5 -34v-993q0 -49 -12.5 -68.5t-53.5 -19.5h-108q-37 0 -52.5 20.5t-15.5 67.5z" />
<glyph unicode="&#x2000;" horiz-adv-x="822" />
<glyph unicode="&#x2001;" horiz-adv-x="1645" />
<glyph unicode="&#x2002;" horiz-adv-x="822" />
<glyph unicode="&#x2003;" horiz-adv-x="1645" />
<glyph unicode="&#x2004;" horiz-adv-x="548" />
<glyph unicode="&#x2005;" horiz-adv-x="411" />
<glyph unicode="&#x2006;" horiz-adv-x="274" />
<glyph unicode="&#x2007;" horiz-adv-x="274" />
<glyph unicode="&#x2008;" horiz-adv-x="205" />
<glyph unicode="&#x2009;" horiz-adv-x="329" />
<glyph unicode="&#x200a;" horiz-adv-x="91" />
<glyph unicode="&#x2010;" horiz-adv-x="432" d="M20 672v102q0 51 12.5 67.5t53.5 16.5h260q41 0 53.5 -16.5t12.5 -67.5v-102q0 -51 -12.5 -67.5t-53.5 -16.5h-260q-41 0 -53.5 16.5t-12.5 67.5z" />
<glyph unicode="&#x2011;" horiz-adv-x="432" d="M20 672v102q0 51 12.5 67.5t53.5 16.5h260q41 0 53.5 -16.5t12.5 -67.5v-102q0 -51 -12.5 -67.5t-53.5 -16.5h-260q-41 0 -53.5 16.5t-12.5 67.5z" />
<glyph unicode="&#x2012;" horiz-adv-x="432" d="M20 672v102q0 51 12.5 67.5t53.5 16.5h260q41 0 53.5 -16.5t12.5 -67.5v-102q0 -51 -12.5 -67.5t-53.5 -16.5h-260q-41 0 -53.5 16.5t-12.5 67.5z" />
<glyph unicode="&#x2013;" horiz-adv-x="673" d="M20 645v121q0 49 10.5 70.5t53.5 21.5h506q43 0 53 -21.5t10 -70.5v-121q0 -49 -10 -70.5t-53 -21.5h-506q-43 0 -53.5 21.5t-10.5 70.5z" />
<glyph unicode="&#x2014;" horiz-adv-x="909" d="M23 645v121q0 49 10 70.5t53 21.5h737q43 0 53.5 -21.5t10.5 -70.5v-121q0 -49 -10.5 -70.5t-53.5 -21.5h-737q-43 0 -53 21.5t-10 70.5z" />
<glyph unicode="&#x2018;" horiz-adv-x="231" d="M8 1016v84q0 29 2 42t6 29l52 156q12 39 45 39h73q18 0 24.5 -6t-3.5 -33l-41 -117q-14 -37 10 -36h14q20 0 26.5 -14.5t6.5 -61.5v-76q0 -51 -14 -70.5t-53 -19.5h-84q-35 0 -49.5 18.5t-14.5 65.5z" />
<glyph unicode="&#x2019;" horiz-adv-x="231" d="M8 1200v76q0 51 14.5 70.5t53.5 19.5h84q35 0 49 -18.5t14 -65.5v-84q0 -29 -2 -42t-6 -30l-51 -155q-12 -39 -45 -39h-74q-18 0 -24.5 6t4.5 33l41 116q6 16 4 26.5t-15 10.5h-14q-20 0 -26.5 14.5t-6.5 61.5z" />
<glyph unicode="&#x201a;" horiz-adv-x="239" d="M12 76v76q0 51 15.5 70.5t52.5 19.5h84q35 0 49 -18.5t14 -65.5v-84q0 -29 -2 -42.5t-6 -29.5l-49 -156q-10 -39 -45 -39h-76q-18 0 -24.5 7.5t4.5 31.5l43 117q4 12 3 24.5t-14 12.5h-14q-20 0 -27.5 14.5t-7.5 61.5z" />
<glyph unicode="&#x201c;" horiz-adv-x="516" d="M12 1016v84q0 29 2 42t6 29l52 156q12 39 45 39h73q18 0 24.5 -6t-3.5 -33l-41 -117q-14 -37 10 -36h15q20 0 26 -14.5t6 -61.5v-76q0 -51 -14 -70.5t-53 -19.5h-84q-35 0 -49.5 18.5t-14.5 65.5zM289 1016v84q0 29 2 42t6 29l49 156q12 39 45 39h76q18 0 24.5 -7 t-4.5 -32l-43 -117q-4 -12 -3 -24t14 -12h14q20 0 27.5 -14.5t7.5 -61.5v-76q0 -51 -15.5 -70.5t-52.5 -19.5h-84q-35 0 -49 18.5t-14 65.5z" />
<glyph unicode="&#x201d;" horiz-adv-x="516" d="M12 1200v76q0 51 15.5 70.5t52.5 19.5h84q35 0 49 -18.5t14 -65.5v-84q0 -29 -2 -42t-6 -30l-49 -155q-10 -39 -45 -39h-76q-18 0 -24.5 7t4.5 32l43 116q4 12 3 24.5t-14 12.5h-14q-20 0 -27.5 14.5t-7.5 61.5zM289 1200v76q0 51 14 70.5t53 19.5h84q35 0 49.5 -18.5 t14.5 -65.5v-84q0 -29 -2 -42t-6 -30l-52 -155q-12 -39 -45 -39h-73q-18 0 -24.5 6t3.5 33l41 116q6 16 4 26.5t-14 10.5h-14q-20 0 -26.5 14.5t-6.5 61.5z" />
<glyph unicode="&#x201e;" horiz-adv-x="516" d="M12 76v76q0 51 15.5 70.5t52.5 19.5h84q35 0 49 -18.5t14 -65.5v-84q0 -29 -2 -42.5t-6 -29.5l-49 -156q-10 -39 -45 -39h-76q-18 0 -24.5 7.5t4.5 31.5l43 117q4 12 3 24.5t-14 12.5h-14q-20 0 -27.5 14.5t-7.5 61.5zM289 76v76q0 51 14 70.5t53 19.5h84 q35 0 49.5 -18.5t14.5 -65.5v-84q0 -29 -2 -43.5t-6 -28.5l-52 -156q-12 -39 -45 -39h-73q-18 0 -24.5 6.5t3.5 32.5l41 117q6 16 4 26.5t-14 10.5h-14q-20 0 -26.5 14.5t-6.5 61.5z" />
<glyph unicode="&#x2022;" horiz-adv-x="387" d="M20 635v194q0 72 18.5 94.5t78.5 22.5h153q59 0 78 -22.5t19 -94.5v-194q0 -72 -18.5 -94.5t-78.5 -22.5h-153q-59 0 -78 22.5t-19 94.5z" />
<glyph unicode="&#x2026;" horiz-adv-x="899" d="M35 92v58q0 49 10 70.5t53 21.5h115q43 0 53 -21.5t10 -70.5v-58q0 -49 -10 -70.5t-53 -21.5h-115q-43 0 -53 21.5t-10 70.5zM328 92v58q0 49 10 70.5t53 21.5h115q43 0 53 -21.5t10 -70.5v-58q0 -49 -10 -70.5t-53 -21.5h-115q-43 0 -53 21.5t-10 70.5zM621 92v58 q0 49 10 70.5t53 21.5h115q43 0 53 -21.5t10 -70.5v-58q0 -49 -10 -70.5t-53 -21.5h-115q-43 0 -53 21.5t-10 70.5z" />
<glyph unicode="&#x202f;" horiz-adv-x="329" />
<glyph unicode="&#x2030;" horiz-adv-x="1689" d="M12 1020q0 94 9.5 162.5t35 113.5t73.5 66.5t126 21.5t126 -21.5t73.5 -66.5t35 -113.5t9.5 -162.5q0 -106 -12.5 -180t-40 -120t-74.5 -66.5t-117 -20.5q-137 0 -190.5 88t-53.5 299zM197 1010q0 -76 2 -120t8 -66.5t18.5 -29t32.5 -6.5t31.5 6.5t17.5 29t7 66.5t1 120 q0 70 -1 111.5t-6 65t-16 31t-34 7.5q-20 0 -32.5 -7.5t-18.5 -31t-8 -65.5t-2 -111zM292 5q-7 9 3 38l403 1292q6 23 14.5 28t30.5 5h62q23 0 35 -6t2 -35l-412 -1300q-6 -18 -13 -24.5t-22 -6.5h-67q-29 0 -36 9zM637 360q0 94 9 163t35 114t74 66.5t126 21.5t126 -21.5 t73.5 -66.5t34.5 -114t9 -163q0 -106 -12 -180t-41 -120t-75 -66.5t-115 -20.5q-70 0 -117 20.5t-74.5 66.5t-40 120t-12.5 180zM821 350q0 -76 2 -120t8.5 -66.5t18.5 -28.5t33 -6q20 0 31.5 6t17.5 28.5t7 66.5t1 120q0 70 -1 112t-6 65.5t-16.5 30.5t-33.5 7 q-20 0 -32.5 -7t-19 -30.5t-8.5 -65.5t-2 -112zM1190 360q0 94 9 163t35 114t74 66.5t126 21.5t126 -21.5t73.5 -66.5t34.5 -114t9 -163q0 -106 -12 -180t-41 -120t-75 -66.5t-115 -20.5q-70 0 -117 20.5t-75 66.5t-40 120t-12 180zM1374 350q0 -76 2 -120t8.5 -66.5 t18.5 -28.5t33 -6q20 0 31.5 6t17.5 28.5t7 66.5t1 120q0 70 -1 112t-6 65.5t-16.5 30.5t-33.5 7q-20 0 -32.5 -7t-19 -30.5t-8.5 -65.5t-2 -112z" />
<glyph unicode="&#x2039;" horiz-adv-x="204" d="M10 524v264q0 37 5 51.5t22 26.5l125 92q18 14 25.5 7t7.5 -25v-137q0 -23 -3.5 -35t-11.5 -23l-65 -94l59 -84q12 -18 16.5 -26.5t4.5 -26.5v-145q0 -23 -8.5 -24t-18.5 3l-125 90q-33 25 -33 86z" />
<glyph unicode="&#x203a;" horiz-adv-x="204" d="M10 369v145q0 18 4 26.5t17 26.5l59 84l-65 94q-8 10 -11.5 22.5t-3.5 35.5v137q0 18 7.5 25.5t25.5 -7.5l125 -92q16 -12 21.5 -26.5t5.5 -51.5v-264q0 -61 -33 -86l-125 -90q-10 -4 -18.5 -3t-8.5 24z" />
<glyph unicode="&#x2044;" horiz-adv-x="208" d="M-143 51l344 1272q12 43 39 43h92q35 0 20 -51l-344 -1272q-12 -43 -39 -43h-92q-35 0 -20 51z" />
<glyph unicode="&#x205f;" horiz-adv-x="411" />
<glyph unicode="&#x20ac;" horiz-adv-x="854" d="M18 782l25 95q4 16 10 22t23 6h57q23 137 69 228.5t107.5 145.5t133 76.5t141.5 22.5q59 0 118.5 -12t85.5 -23q41 -14 41 -32q0 -25 -14 -64l-29 -88q-6 -20 -12 -32.5t-22 -12.5q-25 0 -60 15.5t-94 15.5q-41 0 -77 -10.5t-63.5 -38t-48 -73.5t-30.5 -118h274 q51 0 43 -26l-24 -99q-4 -16 -9.5 -21t-29.5 -5h-262q-2 -16 -2 -35v-39v-43.5t2 -40.5h202q51 0 43 -27l-24 -98q-4 -16 -9 -21.5t-30 -5.5h-168q10 -133 54 -183t118 -50q41 0 70.5 4t52 9t40 9.5t36.5 4.5q41 0 41 -52v-90q0 -29 -4.5 -50t-26.5 -32q-33 -14 -93.5 -23 t-133.5 -9q-61 0 -127 18t-122.5 68.5t-98 141.5t-58.5 234h-74q-47 0 -39 29l25 94q4 16 8 22.5t25 6.5h43q-2 14 -2 31.5v38.5v44t2 44h-64q-47 0 -39 28z" />
<glyph unicode="&#x2122;" horiz-adv-x="618" d="M10 1288v78h209v-78h-72v-352h-67v352h-70zM270 934l33 432h82l57 -301q0 12 9 49q6 31 17 90.5t32 161.5h82l26 -432h-61l-17 307l-61 -307h-61q-20 104 -31.5 164.5t-18.5 91.5q-8 37 -8 47l-16 -303h-64z" />
<glyph unicode="&#x2248;" horiz-adv-x="1335" d="M0 528v31q0 43 10 58.5t47 35.5q72 37 153 59.5t157 22.5q90 0 153.5 -19.5t122.5 -42t127 -42t166 -19.5q100 0 182 20.5t160 55.5q23 10 40 4t17 -39v-39q0 -43 -9 -60t-48 -34q-74 -31 -167 -48t-189 -17t-163 19.5t-126.5 42t-123 42t-155.5 19.5q-80 0 -151.5 -26 t-145.5 -60q-20 -10 -38.5 -4t-18.5 40zM0 840v39q0 43 9 60t48 34q74 31 167 48t190 17q96 0 162.5 -19.5t126 -42t123 -42t155.5 -19.5q80 0 151.5 25t145.5 59q20 10 38.5 4t18.5 -40v-31q0 -43 -10 -57.5t-47 -34.5q-72 -37 -153 -59.5t-156 -22.5q-90 0 -153.5 18.5 t-123 42t-127 42t-166.5 18.5q-100 0 -182 -19.5t-160 -54.5q-23 -10 -40 -5t-17 40z" />
<glyph unicode="&#xe000;" horiz-adv-x="1361" d="M0 0v1362h1362v-1362h-1362z" />
</font>
</defs>
</svg>
